<svg xmlns="http://www.w3.org/2000/svg" width="15.83" height="9.426" viewBox="0 0 15.83 9.426">
  <g id="Group_18148" data-name="Group 18148" transform="translate(597.307 -870.056)">
    <g id="Group_18146" data-name="Group 18146" transform="translate(-597.307 870.056)">
      <path id="Path_1050" data-name="Path 1050" d="M-593.536,878.951h-.008a.616.616,0,0,1-.439-.193l-3.156-3.339a.615.615,0,0,1,.025-.87.616.616,0,0,1,.87.025l2.721,2.879,7.209-7.216a.616.616,0,0,1,.871,0,.615.615,0,0,1,0,.87l-7.657,7.664A.616.616,0,0,1-593.536,878.951Z" transform="translate(597.307 -870.056)" fill="#4169e2"/>
    </g>
    <g id="Group_18147" data-name="Group 18147" transform="translate(-591.513 870.587)">
      <path id="Path_1051" data-name="Path 1051" d="M-572.012,881.106a.615.615,0,0,1-.427-.172l-1.147-1.1a.616.616,0,0,1-.017-.87.615.615,0,0,1,.87-.017l.712.685,7.23-7.237a.616.616,0,0,1,.871,0,.615.615,0,0,1,0,.871l-7.657,7.664A.613.613,0,0,1-572.012,881.106Z" transform="translate(573.775 -872.211)" fill="#4169e2"/>
    </g>
  </g>
</svg>
