<svg xmlns="http://www.w3.org/2000/svg" width="66.521" height="50.999" viewBox="0 0 66.521 50.999">
  <g id="Group_166" data-name="Group 166" transform="translate(-11.609 -24)">
    <g id="Group_165" data-name="Group 165" transform="translate(11.609 24)">
      <path id="Path_487" data-name="Path 487" d="M74.8,24H14.935a3.326,3.326,0,0,0-3.326,3.326V71.673A3.326,3.326,0,0,0,14.935,75H74.8a3.326,3.326,0,0,0,3.326-3.326V27.326A3.326,3.326,0,0,0,74.8,24Zm1.109,47.674A1.109,1.109,0,0,1,74.8,72.782H14.935a1.108,1.108,0,0,1-1.109-1.109V27.326a1.109,1.109,0,0,1,1.109-1.109H74.8a1.109,1.109,0,0,1,1.109,1.109V71.674Z" transform="translate(-11.609 -24)"/>
      <path id="Path_488" data-name="Path 488" d="M73.142,28.9a1.107,1.107,0,0,0-.809.256L46.755,50.638a2.218,2.218,0,0,1-2.854,0L18.324,29.152a1.109,1.109,0,0,0-1.426,1.7L42.476,52.336a4.429,4.429,0,0,0,5.7,0L73.758,30.851a1.11,1.11,0,0,0-.616-1.954Z" transform="translate(-12.067 -24.458)"/>
      <path id="Path_489" data-name="Path 489" d="M33.389,54.586a1.107,1.107,0,0,0-1.069.344L16.8,71.56a1.108,1.108,0,1,0,1.621,1.512l15.522-16.63a1.109,1.109,0,0,0-.552-1.856Z" transform="translate(-12.065 -26.861)"/>
      <path id="Path_490" data-name="Path 490" d="M62.454,54.93a1.109,1.109,0,1,0-1.621,1.513l15.521,16.63a1.108,1.108,0,0,0,1.621-1.512Z" transform="translate(-16.187 -26.861)"/>
    </g>
  </g>
</svg>
