<svg xmlns="http://www.w3.org/2000/svg" width="17.071" height="17.071" viewBox="0 0 17.071 17.071">
  <g id="download" transform="translate(-10.2 -10.2)">
    <path id="Path_34" data-name="Path 34" d="M26.735,18.2H24.891a6.187,6.187,0,0,0-5.619-5.619V10.736a.536.536,0,0,0-1.072,0v1.844A6.187,6.187,0,0,0,12.581,18.2H10.736a.536.536,0,0,0,0,1.072h1.844A6.187,6.187,0,0,0,18.2,24.891v1.844a.536.536,0,0,0,1.072,0V24.891a6.187,6.187,0,0,0,5.619-5.619h1.844a.536.536,0,0,0,0-1.072Zm-2.917,1.072a5.132,5.132,0,0,1-4.547,4.547,6.713,6.713,0,0,1-1.072,0,5.132,5.132,0,0,1-4.547-4.547,6.712,6.712,0,0,1,0-1.072A5.132,5.132,0,0,1,18.2,13.653a6.712,6.712,0,0,1,1.072,0A5.153,5.153,0,0,1,23.818,18.2a4.307,4.307,0,0,1,.021.536A4.482,4.482,0,0,1,23.818,19.272Z" fill="#696969"/>
    <circle id="Ellipse_5" data-name="Ellipse 5" cx="2.295" cy="2.295" r="2.295" transform="translate(16.441 16.441)" fill="#696969"/>
  </g>
</svg>
