<svg id="_404-error" data-name="404-error" xmlns="http://www.w3.org/2000/svg" width="832.633" height="620.491" viewBox="0 0 832.633 620.491">
  <g id="Background_Complete" data-name="Background Complete">
    <g id="Group_17158" data-name="Group 17158">
      <rect id="Rectangle_11566" data-name="Rectangle 11566" width="832.633" height="0.416" transform="translate(0 545.284)" fill="#ebebeb"/>
      <rect id="Rectangle_11567" data-name="Rectangle 11567" width="36.101" height="0.416" transform="translate(713.104 572.088)" fill="#ebebeb"/>
      <rect id="Rectangle_11568" data-name="Rectangle 11568" width="56.801" height="0.416" transform="translate(517.161 563.447)" fill="#ebebeb"/>
      <rect id="Rectangle_11569" data-name="Rectangle 11569" width="74.146" height="0.416" transform="translate(660.421 556.624)" fill="#ebebeb"/>
      <rect id="Rectangle_11570" data-name="Rectangle 11570" width="18.547" height="0.416" transform="translate(269.568 565.02)" fill="#ebebeb"/>
      <rect id="Rectangle_11571" data-name="Rectangle 11571" width="63.928" height="0.416" transform="translate(190.814 565.02)" fill="#ebebeb"/>
      <rect id="Rectangle_11572" data-name="Rectangle 11572" width="46.12" height="0.416" transform="translate(110.418 557.989)" fill="#ebebeb"/>
      <path id="Path_46860" data-name="Path 46860" d="M369.273,525.968H47.712a9.517,9.517,0,0,1-9.505-9.505V64.457a9.516,9.516,0,0,1,9.505-9.5H369.273a9.515,9.515,0,0,1,9.5,9.5V516.463A9.517,9.517,0,0,1,369.273,525.968ZM47.712,55.369a9.1,9.1,0,0,0-9.089,9.087V516.463a9.1,9.1,0,0,0,9.089,9.089H369.273a9.1,9.1,0,0,0,9.087-9.089V64.457a9.1,9.1,0,0,0-9.087-9.087Z" transform="translate(25.418 -54.953)" fill="#ebebeb"/>
      <path id="Path_46861" data-name="Path 46861" d="M585.568,525.968H264.009a9.515,9.515,0,0,1-9.5-9.505V64.457a9.514,9.514,0,0,1,9.5-9.5h321.56a9.516,9.516,0,0,1,9.507,9.5V516.463A9.517,9.517,0,0,1,585.568,525.968Zm-321.56-470.6a9.1,9.1,0,0,0-9.087,9.087V516.463a9.1,9.1,0,0,0,9.087,9.089h321.56a9.1,9.1,0,0,0,9.091-9.089V64.457a9.1,9.1,0,0,0-9.091-9.087Z" transform="translate(169.313 -54.953)" fill="#ebebeb"/>
    </g>
    <g id="Group_17164" data-name="Group 17164" transform="translate(69.218 37.394)">
      <g id="Group_17159" data-name="Group 17159" transform="translate(0 44.016)">
        <path id="Path_46862" data-name="Path 46862" d="M332.167,265.434l.749-21.883-13.435-4.39a130.4,130.4,0,0,0-3.582-21.975l11.387-8.4-7.735-20.554-14.085,1.136a128.757,128.757,0,0,0-11.725-18.9l7.3-12.178-15-16-12.591,6.448a137.34,137.34,0,0,0-18.051-13.047l2.04-13.978-19.98-9.067L228.3,123.372a135.124,135.124,0,0,0-21.675-5.079l-3.405-13.7-21.942-.751-4.331,13.435a135.283,135.283,0,0,0-21.975,3.584l-8.456-11.332-20.553,7.679,1.136,14.088a133.933,133.933,0,0,0-18.9,11.78l-12.12-7.294L80.014,150.719l6.446,12.649a128.839,128.839,0,0,0-12.989,18.055l-13.975-2.1L50.372,199.3l10.784,9.157a130.64,130.64,0,0,0-5.079,21.678l-13.762,3.457-.749,21.883,13.492,4.395a129.382,129.382,0,0,0,3.584,21.971l-11.385,8.4L54.991,310.8l14.085-1.137a129.064,129.064,0,0,0,11.723,18.9l-7.3,12.178,15,16.007L101.1,350.3a134.229,134.229,0,0,0,18.051,13.049l-2.1,13.973,19.98,9.067,9.212-10.726a135.24,135.24,0,0,0,21.677,5.077l3.4,13.7,21.94.751,4.335-13.435a135.29,135.29,0,0,0,21.973-3.584l8.4,11.331,20.553-7.679-1.077-14.083a137.33,137.33,0,0,0,18.9-11.783l12.121,7.3,16.061-14.942-6.445-12.649a128.96,128.96,0,0,0,12.989-18.053l13.975,2.1,9.124-19.978-10.786-9.157a129.046,129.046,0,0,0,5.077-21.675ZM184.3,336.326a86.86,86.86,0,1,1,89.755-83.81A86.839,86.839,0,0,1,184.3,336.326Z" transform="translate(-41.566 -103.84)" fill="#ebebeb"/>
      </g>
      <g id="Group_17160" data-name="Group 17160" transform="translate(583.412 43.788)">
        <path id="Path_46863" data-name="Path 46863" d="M473.588,193.161l5.519-5.152-2.2-4.346a44.911,44.911,0,0,0,4.485-6.233l4.824.729,3.126-6.9-3.712-3.157a44.406,44.406,0,0,0,1.75-7.469l4.749-1.191.245-7.56-4.643-1.5a47.445,47.445,0,0,0-1.221-7.582l3.907-2.911-2.661-7.084-4.849.385a46.62,46.62,0,0,0-4.047-6.525l2.511-4.172-5.167-5.534-4.333,2.221a46.609,46.609,0,0,0-6.231-4.486l.7-4.824-6.884-3.139-3.159,3.712a46.164,46.164,0,0,0-7.48-1.737l-1.177-4.734-7.56-.273-1.512,4.656a44.379,44.379,0,0,0-7.57,1.236l-2.9-3.92-7.1,2.648.4,4.861a45.229,45.229,0,0,0-6.524,4.048l-4.2-2.513-5.519,5.154,2.218,4.361a44.671,44.671,0,0,0-4.484,6.231l-4.823-.729-3.127,6.9,3.712,3.157a44.555,44.555,0,0,0-1.75,7.467l-4.748,1.191-.245,7.562,4.643,1.5a46.049,46.049,0,0,0,1.219,7.584l-3.918,2.9,2.661,7.082,4.861-.37a46.478,46.478,0,0,0,4.048,6.525L402.91,185.4l5.167,5.534,4.333-2.22a46.536,46.536,0,0,0,6.231,4.485l-.714,4.811,6.884,3.139,3.171-3.7a47.231,47.231,0,0,0,7.482,1.735l1.176,4.734,7.56.273,1.512-4.656a44.349,44.349,0,0,0,7.57-1.234l2.9,3.918,7.1-2.646-.4-4.863a44.772,44.772,0,0,0,6.524-4.047ZM434.261,161.3a10.777,10.777,0,1,1,15.227.521A10.775,10.775,0,0,1,434.261,161.3Z" transform="translate(-391.908 -103.703)" fill="#ebebeb"/>
      </g>
      <path id="Path_46864" data-name="Path 46864" d="M409.934,331.533l-17.221-11.892c-.005-.013-.005-.028-.01-.042a94.552,94.552,0,0,0-6.926-17.938l4.413-17.314L365.211,257.6l-17.584,3.219a94.676,94.676,0,0,0-17.409-8.13.447.447,0,0,1-.043-.015l-10.691-18-36.576-1.254-11.893,17.221-.068.017a94.678,94.678,0,0,0-17.918,6.917l-17.307-4.411-26.751,24.979,3.212,17.549-.008.015a92.765,92.765,0,0,0-8.135,17.475l-18,10.686-1.254,36.578,17.237,11.9a91.6,91.6,0,0,0,6.906,18.015l0,.007-4.4,17.262,24.979,26.749,17.474-3.2a95.5,95.5,0,0,0,17.562,8.148l.015,0,10.673,17.975,36.578,1.254L323.7,441.351a95.313,95.313,0,0,0,18.07-6.924l0,0L359,438.813l26.751-24.976-3.212-17.552a92.779,92.779,0,0,0,8.135-17.477l0,0,18-10.693Zm-113.991,55.6a41.156,41.156,0,1,1,42.541-39.723A41.169,41.169,0,0,1,295.943,387.137Z" transform="translate(53.715 26.379)" fill="#ebebeb"/>
      <path id="Path_46865" data-name="Path 46865" d="M384.961,303.676c-.04,0-.078,0-.12,0L356,302.687a3.514,3.514,0,0,1-2.9-1.719l-7.765-13.076a79.12,79.12,0,0,1-12.126-5.625l-12.5,2.286a3.493,3.493,0,0,1-3.2-1.059l-19.693-21.087a3.522,3.522,0,0,1-.838-3.269l3.144-12.34a76.5,76.5,0,0,1-4.761-12.44L282.817,225.7a3.519,3.519,0,0,1-1.517-3.014l.989-28.837a3.51,3.51,0,0,1,1.719-2.9l13.1-7.778a77.091,77.091,0,0,1,5.612-12.07l-2.3-12.544a3.52,3.52,0,0,1,1.059-3.2l21.091-19.7a3.517,3.517,0,0,1,3.269-.838l12.381,3.156a78.157,78.157,0,0,1,12.4-4.781l8.654-12.531a3.4,3.4,0,0,1,3.012-1.515l28.837.988a3.512,3.512,0,0,1,2.9,1.72l7.78,13.1a78.279,78.279,0,0,1,12.035,5.615l12.579-2.3a3.519,3.519,0,0,1,3.2,1.059l19.692,21.092a3.521,3.521,0,0,1,.838,3.269L447,176.067a78.086,78.086,0,0,1,4.781,12.4l12.531,8.654a3.517,3.517,0,0,1,1.517,3.012l-.987,28.841a3.516,3.516,0,0,1-1.72,2.9l-13.1,7.782a76.976,76.976,0,0,1-5.605,12.062l2.3,12.549a3.511,3.511,0,0,1-1.059,3.2l-21.089,19.69A3.506,3.506,0,0,1,421.3,288l-12.325-3.141a78.79,78.79,0,0,1-12.471,4.779l-8.644,12.521A3.52,3.52,0,0,1,384.961,303.676Zm-26.794-7.952,24.994.856,8.278-11.987a3.516,3.516,0,0,1,1.98-1.4A71.774,71.774,0,0,0,407,277.991l.023-.012a3.5,3.5,0,0,1,2.428-.255l11.722,2.986,18.278-17.067L437.262,251.7a3.522,3.522,0,0,1,.446-2.448,69.834,69.834,0,0,0,6.078-13.046,3.53,3.53,0,0,1,1.569-1.952l12.526-7.44.858-25-12-8.285a3.505,3.505,0,0,1-1.337-1.78c-.03-.088-.058-.185-.082-.281a70.9,70.9,0,0,0-5.186-13.412,3.521,3.521,0,0,1-.271-2.461l3-11.787L425.8,145.526l-11.972,2.193a3.507,3.507,0,0,1-2.435-.44,71.284,71.284,0,0,0-13.066-6.1,3.892,3.892,0,0,1-.734-.341,3.511,3.511,0,0,1-1.181-1.2l-7.447-12.538-25-.858-8.283,12a3.515,3.515,0,0,1-2.07,1.42,71.273,71.273,0,0,0-13.412,5.182,3.509,3.509,0,0,1-2.46.271l-11.782-3-18.28,17.071,2.186,11.945a3.515,3.515,0,0,1-.315,2.2c-.048.095-.1.19-.158.283a69.815,69.815,0,0,0-6.085,13.087,3.523,3.523,0,0,1-1.527,1.868l-12.536,7.445L288.4,221,300.4,229.3a3.505,3.505,0,0,1,1.4,1.977,69.4,69.4,0,0,0,5.179,13.517,3.447,3.447,0,0,1,.285.756,3.5,3.5,0,0,1,0,1.72l-2.994,11.747,17.069,18.276,11.887-2.173a3.527,3.527,0,0,1,2.423.433,72.183,72.183,0,0,0,13.134,6.1,3.509,3.509,0,0,1,1.957,1.554Zm41.27-157.887h0ZM373.6,264.143c-.616,0-1.231-.012-1.85-.033a52.526,52.526,0,1,1,1.85.033Zm-.063-98.407a45.729,45.729,0,1,0,1.584.028C374.595,165.746,374.065,165.736,373.541,165.736Z" transform="translate(117.919 -49.647)" fill="#ebebeb"/>
      <g id="Group_17161" data-name="Group 17161" transform="translate(554.156 18.844)">
        <path id="Path_46866" data-name="Path 46866" d="M389.493,113.246l-11.946-3.208-3.208-11.945,4.677-4.677,4.935,10.219,10.219,4.935Z" transform="translate(-374.339 -85.603)" fill="#e0e0e0"/>
        <path id="Path_46867" data-name="Path 46867" d="M387.035,107.232a5.574,5.574,0,1,0-7.885-7.882l5.942-8.916,7.97,4.03,1.747,8.373Z" transform="translate(-371.139 -87.586)" fill="#e0e0e0"/>
        <path id="Path_46868" data-name="Path 46868" d="M376.582,97.478l8.754-8.754,11.945,3.207,3.207,11.947-8.753,8.754-11.947-3.209Zm15.9,7.157a5.574,5.574,0,1,0-7.883-.017A5.6,5.6,0,0,0,392.477,104.636Z" transform="translate(-372.847 -88.724)" fill="#f0f0f0"/>
      </g>
      <g id="Group_17162" data-name="Group 17162" transform="translate(74.322 350.36)">
        <path id="Path_46869" data-name="Path 46869" d="M91.224,300.959l6.41-1.722,1.721-6.41-2.51-2.51L94.2,295.8l-5.484,2.648Z" transform="translate(-84.523 -286.127)" fill="#e0e0e0"/>
        <path id="Path_46870" data-name="Path 46870" d="M91.648,297.732a2.991,2.991,0,1,1,4.23-4.23l-3.187-4.784-4.276,2.162-.938,4.495Z" transform="translate(-85.345 -287.191)" fill="#e0e0e0"/>
        <path id="Path_46871" data-name="Path 46871" d="M99.026,292.5l-4.7-4.7-6.411,1.72-1.72,6.411,4.7,4.7,6.411-1.722Zm-8.531,3.84a2.991,2.991,0,1,1,4.231-.008A3,3,0,0,1,90.5,296.339Z" transform="translate(-86.197 -287.801)" fill="#f0f0f0"/>
      </g>
      <g id="Group_17163" data-name="Group 17163" transform="translate(48.399)">
        <path id="Path_46872" data-name="Path 46872" d="M76.778,88.089,82.1,93.409a3.572,3.572,0,0,0,5.037,0h0a3.572,3.572,0,0,0,0-5.037l-5.321-5.319a3.57,3.57,0,0,0-5.036,0h0A3.57,3.57,0,0,0,76.778,88.089Z" transform="translate(-67.231 -74.344)" fill="#f0f0f0"/>
        <path id="Path_46873" data-name="Path 46873" d="M76.243,77.9a7.419,7.419,0,1,1-4.921,9.635A7.659,7.659,0,0,1,76.243,77.9Z" transform="translate(-70.444 -77.408)" fill="#e0e0e0"/>
        <rect id="Rectangle_11573" data-name="Rectangle 11573" width="2.281" height="16.822" transform="matrix(-0.338, -0.941, 0.941, -0.338, 0.771, 11.38)" fill="#f0f0f0"/>
      </g>
    </g>
  </g>
  <g id="Shadow" transform="translate(93.439 582.778)">
    <ellipse id="_Path_" data-name="&lt;Path&gt;" cx="322.877" cy="18.856" rx="322.877" ry="18.856" fill="#f5f5f5"/>
  </g>
  <g id="Oops_" data-name="Oops!" transform="translate(143.541 50.901)">
    <g id="Group_17165" data-name="Group 17165">
      <path id="Path_46874" data-name="Path 46874" d="M87.061,132.4q-2.5-11,2.233-18.523t15.677-10.007q11.213-2.55,18.649,2.092t9.9,15.489q1.789,7.876.285,13.519a19.373,19.373,0,0,1-5.877,9.587,25.94,25.94,0,0,1-11.85,5.642,29.457,29.457,0,0,1-13.129.44,19.393,19.393,0,0,1-9.817-5.827Q88.852,140.282,87.061,132.4Zm13.895-3.092q1.546,6.8,4.749,9.2a9.816,9.816,0,0,0,13.818-3.076q1.789-3.47.077-11.007-1.444-6.342-4.666-8.688a8.972,8.972,0,0,0-7.605-1.347,8.65,8.65,0,0,0-6.067,4.5Q99.394,122.45,100.956,129.312Z" transform="translate(-86.197 -73.91)" fill="#263238"/>
      <path id="Path_46875" data-name="Path 46875" d="M118.8,126.159a16.691,16.691,0,0,1,2.236-13.414q3.927-5.97,12.476-7.912,9.777-2.223,16.06,2.31a18.18,18.18,0,0,1,4.388,23.77q-3.889,5.927-12.684,7.927-7.843,1.784-13.592-1.1A16.393,16.393,0,0,1,118.8,126.159Zm12.5-2.871q.987,4.349,3.224,6.035a5.922,5.922,0,0,0,8.863-1.983q1.266-2.448.235-6.981-.962-4.229-3.179-5.9a5.575,5.575,0,0,0-4.791-1.086,5.789,5.789,0,0,0-4.027,3.124Q130.316,119,131.293,123.288Z" transform="translate(-64.848 -73.158)" fill="#263238"/>
      <path id="Path_46876" data-name="Path 46876" d="M152.665,148.974l-10.213-44.922,11.675-2.656,1.092,4.811a15.958,15.958,0,0,1,3.51-5.116,13.066,13.066,0,0,1,5.709-2.811,11.976,11.976,0,0,1,11.232,2.7,21.213,21.213,0,0,1,6.378,11.539q1.848,8.121-1.074,13.279a13.05,13.05,0,0,1-8.864,6.511,13.98,13.98,0,0,1-5.479.213,12.8,12.8,0,0,1-4.9-1.945l3.532,15.535Zm6.01-31.4q.877,3.862,2.926,5.361a5.334,5.334,0,0,0,4.531.936,4.657,4.657,0,0,0,3.239-2.621q1.062-2.128.088-6.418-.9-3.954-2.853-5.457a4.8,4.8,0,0,0-4.16-1.006,5.161,5.161,0,0,0-3.559,2.774Q157.719,113.376,158.675,117.572Z" transform="translate(-48.772 -77.291)" fill="#263238"/>
      <path id="Path_46877" data-name="Path 46877" d="M170.266,121.986l12.115-3.98a6.277,6.277,0,0,0,2.863,2.671,6.562,6.562,0,0,0,3.893.113,6.381,6.381,0,0,0,3.647-1.957,2.45,2.45,0,0,0,.619-2.233,2.327,2.327,0,0,0-1.882-1.759,26.39,26.39,0,0,0-5.654-.068,57.429,57.429,0,0,1-9.5-.043,9.763,9.763,0,0,1-5-2.293,8.683,8.683,0,0,1-2.923-4.841,8.8,8.8,0,0,1,.609-5.965,11.416,11.416,0,0,1,4.358-4.646,28.058,28.058,0,0,1,8.534-3.147,31.2,31.2,0,0,1,8.8-1.064A11.487,11.487,0,0,1,196,94.479a14.786,14.786,0,0,1,4.23,4.356l-11.564,3.855a4.13,4.13,0,0,0-2.053-1.95,6.4,6.4,0,0,0-3.778-.175,5.182,5.182,0,0,0-2.909,1.449,2.3,2.3,0,0,0-.551,2.042,1.987,1.987,0,0,0,1.637,1.525,20.236,20.236,0,0,0,5.582-.11,37.409,37.409,0,0,1,9.7-.143,10.456,10.456,0,0,1,5.457,2.525,9.028,9.028,0,0,1,2.771,4.748,10.32,10.32,0,0,1-.455,5.865,11.825,11.825,0,0,1-4.4,5.46,26.5,26.5,0,0,1-9.615,3.843q-8.918,2.028-13.279.343A11.72,11.72,0,0,1,170.266,121.986Z" transform="translate(-31.652 -80.722)" fill="#263238"/>
      <path id="Path_46878" data-name="Path 46878" d="M193.849,85.6l13.669-.077.06,10.5-2.521,21.1-8.453.047-2.7-21.071Zm.668,34.784,12.758-.072.063,11.281-12.758.072Z" transform="translate(-14.579 -85.52)" fill="#263238"/>
    </g>
  </g>
  <g id="_404" data-name="404" transform="translate(118.502 73.931)">
    <g id="Group_17173" data-name="Group 17173">
      <g id="Group_17166" data-name="Group 17166" transform="translate(0 78.862)">
        <path id="Path_46879" data-name="Path 46879" d="M147.977,188.13a.839.839,0,0,1-.3-.057c-7.5-2.9-11.978-5.738-14.308-9.146a8.616,8.616,0,0,1-5.382-.741,10.716,10.716,0,0,1-4.629-4.366,4.257,4.257,0,0,1-4.04.624,10.275,10.275,0,0,1-4.916-4.015,3.8,3.8,0,0,1-2.585.716c-4.951-.4-11.66-10.258-12.141-20.761a.833.833,0,0,1,1.664-.075c.456,9.967,6.844,18.869,10.613,19.176a2.108,2.108,0,0,0,1.55-.466,20.428,20.428,0,0,1-1.7-15.673c1.432-5,2.7-6.959,4.216-6.6,2.868.714,2.491,11.61.973,18.8a10.2,10.2,0,0,1-1.407,3.634,9.013,9.013,0,0,0,4.235,3.675,2.633,2.633,0,0,0,2.788-.575c-1.309-3.224-1.58-7.619.195-13.221,2.338-7.375,3.279-7.575,3.842-7.693a1.1,1.1,0,0,1,1.074.366c1.537,1.737-.3,13.191-2.238,18.857a8.353,8.353,0,0,1-.928,1.927,9.121,9.121,0,0,0,4.152,4.165,7.277,7.277,0,0,0,3.785.718c-.15-.316-.285-.634-.406-.961-1.319-3.575-.674-7.7,1.973-12.619,1.757-3.261,3.189-4.781,4.508-4.783h0a1.848,1.848,0,0,1,1.644,1.1c1.452,2.681.4,11.522-2.47,15.91a6.519,6.519,0,0,1-2.694,2.33c2.231,2.933,6.468,5.519,13.237,8.142a.833.833,0,0,1-.3,1.609ZM138.562,160.7s-.943.007-3.042,3.908c-2.41,4.471-3.022,8.151-1.878,11.252a9.089,9.089,0,0,0,.5,1.116,4.923,4.923,0,0,0,2.2-1.84c2.331-3.564,3.449-10.888,2.581-13.75C138.745,160.8,138.563,160.7,138.562,160.7Zm-11.943-7.016a37.621,37.621,0,0,0-2.231,5.878c-1.43,4.51-1.437,8.132-.641,10.9.055-.14.107-.28.155-.418C125.859,164.325,126.813,156.438,126.618,153.687Zm-10.967-5.246c-.281.258-1.091,1.307-2.251,5.364a18.734,18.734,0,0,0,1.211,13.732,10.664,10.664,0,0,0,.749-2.335C117.086,157.024,116.583,149.625,115.651,148.441Z" transform="translate(-52.193 -146.706)" fill="#263238"/>
        <path id="Path_46880" data-name="Path 46880" d="M169.9,232.51a15,15,0,0,1-7.6-1.978.834.834,0,1,1,.843-1.439c5.94,3.489,13.619,1.054,15.2-1.485a1.448,1.448,0,0,0,.245-1.117c-2.35.248-5.241-.375-8.545-2.441-4.238-2.649-4.564-3.435-4.538-4.067a1.025,1.025,0,0,1,.568-.873c1.659-.841,9.167,2.621,12.3,4.679a5.414,5.414,0,0,1,1.036.869,5.889,5.889,0,0,0,3.167-1.907,4.768,4.768,0,0,0,.979-1.868c-.11.015-.221.028-.333.04-2.663.268-5.334-.874-8.178-3.5-1.955-1.807-2.714-3.052-2.461-4.04a1.508,1.508,0,0,1,1.2-1.089c2.3-.571,7.99,1.852,10.315,4.4a4.659,4.659,0,0,1,1.067,1.972c2.173-1.022,4.471-3.312,7.192-7.114a.833.833,0,0,1,1.356.969c-3.147,4.4-5.77,6.888-8.4,7.9a6.191,6.191,0,0,1-1.447,3.4,7.552,7.552,0,0,1-3.632,2.351,3.066,3.066,0,0,1-.466,2.316C178.353,230.747,174.327,232.51,169.9,232.51Zm-1.479-11.55c.56.415,1.362.961,2.508,1.677a13.453,13.453,0,0,0,6,2.2A41.346,41.346,0,0,0,168.418,220.96Zm5.812-7.074a7.2,7.2,0,0,0,1.942,2.31c2.476,2.288,4.726,3.306,6.879,3.071a5.35,5.35,0,0,0,.533-.08,3.05,3.05,0,0,0-.723-1.374C180.518,215.245,175.367,213.618,174.23,213.886Z" transform="translate(-10.802 -103.8)" fill="#263238"/>
        <path id="Path_46881" data-name="Path 46881" d="M252.31,272.109l-25.948,4.713L202.8,148.243l-50.063,9.094L71.161,302.213,79.92,350.02l104.64-19.007,7.164,39.1,50.065-9.1-7.164-39.1,25.948-4.714Zm-131.3,23.852,43.229-75.883,12.062,65.84Z" transform="translate(-71.161 -145.683)"/>
      </g>
      <g id="Group_17169" data-name="Group 17169" transform="translate(209.598)">
        <path id="Path_46882" data-name="Path 46882" d="M377.548,172.026a97.89,97.89,0,0,0-5.324-23.678,76.676,76.676,0,0,0-11.64-20.3q-7.768-9.944-21.156-17.262t-35.34-10.178q-45.692-5.955-71.243,16.22t-33.635,84.947a231.817,231.817,0,0,0-1.625,47.2q1.656,21.669,7.955,34.859a72.888,72.888,0,0,0,24.395,29.6q15.769,11.061,43.214,14.639,48.951,6.377,72.554-18.8t31.315-85.1A215.329,215.329,0,0,0,377.548,172.026Z" transform="translate(-197.026 -99.349)"/>
        <path id="Path_46883" data-name="Path 46883" d="M280.863,303.66c-4.005-.137-8.268-.5-12.669-1.072-15.244-1.985-27.039-5.843-35.059-11.47a54.343,54.343,0,0,1-18.3-22.323l-.082-.173c-3.2-6.7-5.294-16.241-6.22-28.356a214.805,214.805,0,0,1,1.529-43.467c5.943-46.163,18.22-65.423,27.472-73.452,10.788-9.359,25.347-13.589,44.513-12.932,3.927.135,8.085.486,12.358,1.042,12.3,1.6,22.033,4.323,28.927,8.088,6.676,3.65,11.892,7.845,15.5,12.466a58.8,58.8,0,0,1,8.916,15.434,80.249,80.249,0,0,1,4.273,19.247,198.331,198.331,0,0,1-.488,47.83c-4.618,35.866-13.539,61.069-26.511,74.905-9.624,10.266-24.066,14.921-44.153,14.233Z" transform="translate(-189.706 -92.032)" fill="#263238"/>
        <g id="Group_17167" data-name="Group 17167" transform="translate(39.984 26.589)">
          <path id="Path_46884" data-name="Path 46884" d="M304.8,161.9l.216-6.308-3.872-1.266a37.638,37.638,0,0,0-1.034-6.333l3.284-2.421-2.23-5.923-4.06.326a37.335,37.335,0,0,0-3.38-5.449l2.1-3.51L291.5,126.4l-3.629,1.858a39.663,39.663,0,0,0-5.2-3.76l.588-4.03-5.758-2.613-2.638,3.092a38.876,38.876,0,0,0-6.248-1.464l-.983-3.95-6.323-.216-1.249,3.873a38.914,38.914,0,0,0-6.335,1.032l-2.438-3.266-5.923,2.213.326,4.06a38.832,38.832,0,0,0-5.447,3.4l-3.494-2.1-4.631,4.306,1.858,3.645a37.074,37.074,0,0,0-3.743,5.2l-4.028-.6-2.629,5.758,3.107,2.639a37.69,37.69,0,0,0-1.464,6.248l-3.967,1-.215,6.308,3.888,1.266a37.2,37.2,0,0,0,1.032,6.333l-3.282,2.421,2.23,5.925,4.06-.328a37.138,37.138,0,0,0,3.38,5.449l-2.1,3.51,4.323,4.613,3.63-1.858a38.675,38.675,0,0,0,5.2,3.76l-.6,4.028,5.758,2.615,2.656-3.092a38.833,38.833,0,0,0,6.248,1.464l.981,3.95,6.325.216,1.249-3.873a38.924,38.924,0,0,0,6.333-1.033l2.421,3.266,5.925-2.213-.311-4.06a39.576,39.576,0,0,0,5.449-3.4l3.494,2.1,4.63-4.308-1.857-3.645a37.214,37.214,0,0,0,3.744-5.2l4.028.6,2.629-5.758-3.109-2.639a37.1,37.1,0,0,0,1.464-6.248ZM262.176,182.33a25.037,25.037,0,1,1,25.872-24.158A25.032,25.032,0,0,1,262.176,182.33Z" transform="translate(-221.036 -115.316)"/>
        </g>
        <g id="Group_17168" data-name="Group 17168" transform="translate(93.675 155.391)">
          <path id="Path_46885" data-name="Path 46885" d="M309.639,226.305l.456-4.251-2.556-1.042a26.147,26.147,0,0,0-.378-4.32l2.331-1.48-1.186-4.113-2.768.023a24.67,24.67,0,0,0-1.992-3.848l1.579-2.266-2.673-3.326-2.551,1.062a25.251,25.251,0,0,0-3.315-2.784l.619-2.708-3.748-2.057-1.958,1.978a24.755,24.755,0,0,0-4.125-1.311l-.473-2.724-4.251-.476-1.042,2.555a26.731,26.731,0,0,0-4.32.4l-1.479-2.35-4.115,1.2.023,2.768a26.7,26.7,0,0,0-3.85,1.993l-2.263-1.6-3.327,2.673,1.062,2.551a26.983,26.983,0,0,0-2.783,3.314l-2.689-.6-2.057,3.75,1.96,1.937a26.727,26.727,0,0,0-1.312,4.147l-2.724.451-.456,4.253,2.555,1.061a24.439,24.439,0,0,0,.378,4.3l-2.35,1.479,1.2,4.115,2.768,0a25.569,25.569,0,0,0,1.993,3.83l-1.6,2.263L260.9,240.5l2.571-1.081a25.478,25.478,0,0,0,3.314,2.784l-.618,2.706,3.749,2.058,1.957-1.96A26.4,26.4,0,0,0,276,246.3l.471,2.726,4.251.476,1.044-2.556a26.745,26.745,0,0,0,4.32-.4l1.479,2.35,4.095-1.206,0-2.766a26.859,26.859,0,0,0,3.85-1.992l2.245,1.6,3.346-2.671-1.082-2.551a27.269,27.269,0,0,0,2.8-3.314l2.689.6,2.057-3.749L305.6,230.9a27.035,27.035,0,0,0,1.292-4.127Zm-21.439-1.65a7.43,7.43,0,1,1-2.949-10.078A7.446,7.446,0,0,1,288.2,224.655Z" transform="translate(-253.278 -192.662)" opacity="0.3"/>
        </g>
        <path id="Path_46886" data-name="Path 46886" d="M327.216,180.947l-4.964-3.427,0-.012a27.293,27.293,0,0,0-2-5.171l1.272-4.991-7.2-7.712-5.067.928a27.315,27.315,0,0,0-5.017-2.343l-.013,0-3.081-5.189-10.544-.361-3.427,4.964-.02,0a27.225,27.225,0,0,0-5.164,1.995L277,158.356l-7.71,7.2.926,5.057,0,.005a26.72,26.72,0,0,0-2.345,5.037l-5.187,3.081-.361,10.543,4.967,3.43a26.45,26.45,0,0,0,1.992,5.194v0l-1.267,4.976,7.2,7.71,5.037-.923a27.433,27.433,0,0,0,5.062,2.35h0l3.077,5.182,10.543.361,3.425-4.961a27.539,27.539,0,0,0,5.209-2h0l4.966,1.266,7.71-7.2-.926-5.059a26.717,26.717,0,0,0,2.345-5.037h0l5.191-3.082Zm-32.857,16.028a11.864,11.864,0,1,1,12.261-11.45A11.867,11.867,0,0,1,294.359,196.975Z" transform="translate(-153.588 -63.879)" fill="#fff"/>
        <path id="Path_46887" data-name="Path 46887" d="M329.582,128.66l.869-2.092,0,0a10.329,10.329,0,0,0,1.742-1.141l1.932.073,2.265-3.251-.739-1.788a10.182,10.182,0,0,0,.465-2.027v0l1.664-1.54-.7-3.9-2.093-.868,0-.007a10.124,10.124,0,0,0-1.139-1.739l.075-1.933-3.252-2.263-1.784.738h0a10.048,10.048,0,0,0-2.035-.465l-1.539-1.662-3.9.7-.869,2.095a9.928,9.928,0,0,0-1.75,1.139h0l-1.927-.073L314.6,111.9l.736,1.777a10.359,10.359,0,0,0-.465,2.045v0l-1.66,1.537.7,3.9,2.092.868a10.351,10.351,0,0,0,1.144,1.755h0l-.073,1.923,3.251,2.265,1.785-.739a10.035,10.035,0,0,0,2.033.465h0l1.54,1.662Zm-8.473-10.8a4.455,4.455,0,1,1,5.171,3.6A4.457,4.457,0,0,1,321.109,117.857Z" transform="translate(-119.731 -95.729)"/>
        <path id="Path_46888" data-name="Path 46888" d="M296.115,116.264l-1.271-1.072a33.168,33.168,0,0,1,10-8.376l.771,1.477A31.865,31.865,0,0,0,296.115,116.264Z" transform="translate(-131.95 -94.382)"/>
        <path id="Path_46889" data-name="Path 46889" d="M303.854,108.734,303.2,107.2a39.814,39.814,0,0,1,19.549-3.131l-.155,1.659A37.916,37.916,0,0,0,303.854,108.734Z" transform="translate(-126.394 -96.323)"/>
        <path id="Path_46890" data-name="Path 46890" d="M302.253,118.344l-1.375-.938c3.419-5.022,10.178-9.4,16.438-10.638l.323,1.632A26.176,26.176,0,0,0,302.253,118.344Z" transform="translate(-127.937 -94.413)"/>
        <path id="Path_46891" data-name="Path 46891" d="M249.438,237.214a.833.833,0,0,1-.6-.253l-3.492-3.6a29.429,29.429,0,0,1-5.237-.976l-5.442,2.4a.828.828,0,0,1-.8-.067l-9.117-6.045a.838.838,0,0,1-.373-.708l.092-5.933a28.75,28.75,0,0,1-2.943-4.458l-4.671-1.812a.832.832,0,0,1-.515-.609l-2.173-10.721a.829.829,0,0,1,.236-.763l3.6-3.49a29.911,29.911,0,0,1,.973-5.246l-2.4-5.434a.835.835,0,0,1,.068-.8l6.043-9.117a.769.769,0,0,1,.708-.373l5.93.092a29.238,29.238,0,0,1,4.461-2.939l1.812-4.674a.834.834,0,0,1,.611-.515L246.935,169a.848.848,0,0,1,.764.236l3.487,3.6a29.785,29.785,0,0,1,5.251.974l5.434-2.4a.842.842,0,0,1,.8.068l9.117,6.043a.832.832,0,0,1,.371.708l-.09,5.938A28.636,28.636,0,0,1,275,188.621l4.674,1.813a.83.83,0,0,1,.516.609l2.173,10.721a.836.836,0,0,1-.236.764l-3.6,3.492a29.89,29.89,0,0,1-.974,5.234l2.4,5.444a.831.831,0,0,1-.067.8l-6.043,9.117a.871.871,0,0,1-.706.373l-5.933-.09a29.308,29.308,0,0,1-4.456,2.929l-1.815,4.683a.842.842,0,0,1-.611.516L249.6,237.2A.793.793,0,0,1,249.438,237.214Zm-9.387-6.544a.81.81,0,0,1,.235.035,27.885,27.885,0,0,0,5.514,1.026.832.832,0,0,1,.53.251l3.389,3.494,9.828-1.993,1.765-4.551a.83.83,0,0,1,.391-.436,27.615,27.615,0,0,0,4.688-3.082.716.716,0,0,1,.54-.186l5.778.087,5.54-8.358-2.338-5.3a.823.823,0,0,1-.037-.568,28.325,28.325,0,0,0,1.024-5.514.834.834,0,0,1,.25-.53l3.5-3.39-1.993-9.828-4.541-1.76a.823.823,0,0,1-.443-.4,27.086,27.086,0,0,0-3.082-4.671.836.836,0,0,1-.19-.541l.088-5.785-8.358-5.54-5.289,2.331a.854.854,0,0,1-.568.04,28.251,28.251,0,0,0-5.534-1.027.828.828,0,0,1-.528-.248l-3.387-3.492-9.827,1.995-1.76,4.54a.836.836,0,0,1-.393.438,27.556,27.556,0,0,0-4.691,3.087.769.769,0,0,1-.541.191l-5.778-.09-5.539,8.36,2.335,5.294a.839.839,0,0,1-.017.709,28.954,28.954,0,0,0-.971,5.384.83.83,0,0,1-.25.53l-3.494,3.389,1.992,9.827,4.54,1.76a.825.825,0,0,1,.455.428,27.286,27.286,0,0,0,3.071,4.648.848.848,0,0,1,.193.545l-.09,5.78,8.36,5.544,5.3-2.34A.842.842,0,0,1,240.051,230.669Zm8.19-5.387a22.187,22.187,0,0,1-18.471-34.439h0a22.192,22.192,0,1,1,18.469,34.439Zm-17.082-33.518a20.526,20.526,0,1,0,28.454-5.777,20.376,20.376,0,0,0-28.454,5.777Z" transform="translate(-185.629 -53.022)" fill="#fff"/>
      </g>
      <g id="Group_17172" data-name="Group 17172" transform="translate(402.59 80.412)">
        <path id="Path_46892" data-name="Path 46892" d="M500.94,287.541l-26.135-3.529,17.285-129.571-50.426-6.8L319.346,260.252l-6.428,48.176,105.4,14.223-5.257,39.4,50.428,6.806,5.256-39.4,26.136,3.527ZM368.688,269.693l64.542-58.831-8.852,66.346Z" transform="translate(-312.918 -147.637)"/>
        <path id="Path_46893" data-name="Path 46893" d="M394.467,365.512a.947.947,0,0,1-.152-.013.831.831,0,0,1-.668-.969l38.844-213.036a.85.85,0,0,1,.968-.671.833.833,0,0,1,.669.969L395.285,364.829A.832.832,0,0,1,394.467,365.512Z" transform="translate(-259.221 -145.524)" fill="#263238"/>
        <g id="Group_17170" data-name="Group 17170" transform="translate(128.138 8.136)">
          <path id="Path_46894" data-name="Path 46894" d="M415.921,153.934a1.365,1.365,0,1,1-1.317-1.41A1.365,1.365,0,0,1,415.921,153.934Z" transform="translate(-374.347 -152.522)" fill="#263238"/>
          <path id="Path_46895" data-name="Path 46895" d="M412.589,171.235a1.365,1.365,0,1,1-1.317-1.41A1.366,1.366,0,0,1,412.589,171.235Z" transform="translate(-376.564 -141.013)" fill="#263238"/>
          <path id="Path_46896" data-name="Path 46896" d="M409.256,188.535a1.365,1.365,0,1,1-1.317-1.41A1.363,1.363,0,0,1,409.256,188.535Z" transform="translate(-378.781 -129.504)" fill="#263238"/>
          <path id="Path_46897" data-name="Path 46897" d="M402.7,206.546a1.365,1.365,0,1,1-1.317-1.41A1.365,1.365,0,0,1,402.7,206.546Z" transform="translate(-383.14 -117.522)" fill="#263238"/>
          <path id="Path_46898" data-name="Path 46898" d="M402.591,223.137a1.365,1.365,0,1,1-1.317-1.41A1.364,1.364,0,0,1,402.591,223.137Z" transform="translate(-383.215 -106.484)" fill="#263238"/>
          <path id="Path_46899" data-name="Path 46899" d="M399.259,240.438a1.365,1.365,0,1,1-1.317-1.41A1.366,1.366,0,0,1,399.259,240.438Z" transform="translate(-385.431 -94.974)" fill="#263238"/>
          <path id="Path_46900" data-name="Path 46900" d="M395.925,257.739a1.364,1.364,0,1,1-1.316-1.412A1.364,1.364,0,0,1,395.925,257.739Z" transform="translate(-387.648 -83.465)" fill="#263238"/>
          <path id="Path_46901" data-name="Path 46901" d="M392.594,275.039a1.365,1.365,0,1,1-1.317-1.411A1.363,1.363,0,0,1,392.594,275.039Z" transform="translate(-389.866 -71.955)" fill="#263238"/>
        </g>
        <path id="Path_46902" data-name="Path 46902" d="M401.126,207.473a.833.833,0,0,1-.173-1.647l4.135-.888a.833.833,0,1,1,.35,1.629l-4.137.888A.89.89,0,0,1,401.126,207.473Z" transform="translate(-254.789 -109.527)" fill="#263238"/>
        <g id="Group_17171" data-name="Group 17171" transform="translate(153 81.772)">
          <path id="Path_46903" data-name="Path 46903" d="M411.606,197.241s-3.727,9.707-4.981,15.589-1.331,19.024-1.331,19.024" transform="translate(-404.462 -196.409)" fill="#263238"/>
          <path id="Path_46904" data-name="Path 46904" d="M405.628,233.018h-.005a.832.832,0,0,1-.828-.838c0-.54.09-13.3,1.349-19.194a137.759,137.759,0,0,1,5.017-15.713.833.833,0,0,1,1.555.6c-.038.1-3.719,9.715-4.944,15.464-1.222,5.732-1.312,18.726-1.312,18.856A.832.832,0,0,1,405.628,233.018Z" transform="translate(-404.795 -196.742)" fill="#263238"/>
        </g>
      </g>
    </g>
  </g>
  <g id="Character" transform="translate(189.689 319.174)">
    <g id="Group_17181" data-name="Group 17181">
      <path id="Path_46905" data-name="Path 46905" d="M222.452,343.574c2.313-37.305-1.942-105.122,68.183-96.146,75.163,9.622,53.66,97.511,53.66,97.511Z" transform="translate(-41.699 -246.619)" fill="#263238"/>
      <g id="Group_17174" data-name="Group 17174" transform="translate(196.883 11.667)">
        <circle id="Ellipse_365" data-name="Ellipse 365" cx="30.6" cy="30.6" r="30.6" transform="translate(1.666 1.665)"/>
        <path id="Path_46906" data-name="Path 46906" d="M266.518,254.8c-14.493-2.476-29.991,8.208-31.518,19.032l57.463,5.284C290.438,266.776,278.019,256.762,266.518,254.8Z" transform="translate(-230.234 -253.085)"/>
        <path id="Path_46907" data-name="Path 46907" d="M272.775,278.517c-.411,8-4.771,14.278-9.738,14.023s-8.661-6.948-8.25-14.947,4.769-14.278,9.737-14.023S273.186,270.518,272.775,278.517Z" transform="translate(-217.092 -247.014)"/>
        <path id="Path_46908" data-name="Path 46908" d="M264.4,318.154a32.265,32.265,0,1,1,32.265-32.265A32.3,32.3,0,0,1,264.4,318.154Zm0-61.2a28.934,28.934,0,1,0,28.934,28.934A28.967,28.967,0,0,0,264.4,256.956Z" transform="translate(-232.138 -253.625)"/>
      </g>
      <path id="Path_46909" data-name="Path 46909" d="M290.878,323.328a.971.971,0,0,1-.195-.022.836.836,0,0,1-.616-1.006c.055-.225,5.362-22.8-.148-45.633a.832.832,0,1,1,1.617-.391c5.609,23.232.206,46.186.152,46.416A.832.832,0,0,1,290.878,323.328Z" transform="translate(3.168 -227.312)" fill="#fff" opacity="0.3"/>
      <path id="Path_46910" data-name="Path 46910" d="M291.23,274.591a.834.834,0,0,1-.758-.486,58.822,58.822,0,0,0-7.9-12.751.833.833,0,1,1,1.289-1.054,60.506,60.506,0,0,1,8.12,13.112.834.834,0,0,1-.756,1.179Z" transform="translate(-1.825 -237.721)" fill="#fff" opacity="0.3"/>
      <path id="Path_46911" data-name="Path 46911" d="M132.218,435.7c-.208,0-.413,0-.619-.008a8.326,8.326,0,1,1,.456-16.646c.052,0,.107,0,.16,0,4.811,0,16.385-5.845,40.6-44.013a8.33,8.33,0,0,1,12.5-1.815,344.6,344.6,0,0,0,61.853,42.426,8.326,8.326,0,0,1-7.535,14.849,355.14,355.14,0,0,1-57.948-38.546C161.391,422.453,146.332,435.7,132.218,435.7Z" transform="translate(-107.528 -163.76)" fill="#263238"/>
      <path id="Path_46912" data-name="Path 46912" d="M166.121,408.57a5.189,5.189,0,0,1-.713-.05,5,5,0,0,1-4.238-5.654c1.184-8.286-.285-39.344-10.783-63.49a5,5,0,0,1,1.769-6.122c22.811-15.544,71.4-17.4,73.458-17.475a5,5,0,0,1,.348,9.985c-.451.017-42.931,1.647-64.759,13.66,9.3,24.043,11.405,54.015,9.857,64.857A5,5,0,0,1,166.121,408.57Z" transform="translate(-89.917 -200.609)" fill="#263238"/>
      <path id="Path_46913" data-name="Path 46913" d="M180.258,369.843c-3.324-7.837-18.3-6.947-27.091-.23-4.7,3.589-11.059,14.388-11.727,18.3s2.043,7.46,6.7,7.057c5.74-.5,13.624-8.841,13.624-8.841-5.244,5.142,1.522,8.771,11.619,1.336C178.982,383.342,183.978,378.619,180.258,369.843Z" transform="translate(-95.66 -168.351)"/>
      <path id="Path_46914" data-name="Path 46914" d="M337.039,327.04a.861.861,0,0,1-.232-.032.834.834,0,0,1-.569-1.031c2.218-7.725,4.641-12.446,7.827-15.071a8.656,8.656,0,0,1,.255-5.427,10.72,10.72,0,0,1,3.933-5,4.257,4.257,0,0,1-.984-3.967,10.282,10.282,0,0,1,3.557-5.256,3.825,3.825,0,0,1-.944-2.511c-.042-4.966,9.172-12.531,19.589-13.953a.816.816,0,0,1,.938.713.833.833,0,0,1-.714.936c-9.887,1.351-18.178,8.51-18.146,12.29a2.175,2.175,0,0,0,.6,1.505,20.409,20.409,0,0,1,15.459-3.1c5.111.978,7.189,2.058,6.947,3.609-.453,2.919-11.339,3.524-18.634,2.654a10.229,10.229,0,0,1-3.747-1.074,9,9,0,0,0-3.279,4.546,2.629,2.629,0,0,0,.824,2.724c3.092-1.594,7.444-2.261,13.182-.991,7.555,1.667,7.838,2.588,8.007,3.136a1.1,1.1,0,0,1-.268,1.1c-1.592,1.687-13.166.886-18.981-.538a8.4,8.4,0,0,1-2-.751,9.121,9.121,0,0,0-3.777,4.51,7.2,7.2,0,0,0-.375,3.833c.3-.178.6-.341.918-.491,3.445-1.634,7.614-1.361,12.746.834,3.405,1.459,5.047,2.749,5.167,4.063a1.84,1.84,0,0,1-.949,1.735c-2.54,1.687-11.44,1.43-16.068-1.032a6.51,6.51,0,0,1-2.561-2.476c-2.721,2.486-4.917,6.938-6.921,13.915A.831.831,0,0,1,337.039,327.04Zm9.034-15.539a4.9,4.9,0,0,0,2.032,2.027c3.757,2,11.151,2.456,13.923,1.339.568-.23.653-.42.653-.421s-.092-.938-4.167-2.681c-4.666-2-8.388-2.276-11.375-.861A9.126,9.126,0,0,0,346.073,311.5Zm5.552-10.937c.145.042.288.08.431.117,5.878,1.439,13.817,1.685,16.541,1.237a37.746,37.746,0,0,0-6.055-1.694C357.925,299.205,354.314,299.523,351.625,300.564Zm2.1-9.362a10.6,10.6,0,0,0,2.393.538c8.3.982,15.623-.18,16.719-1.214-.283-.256-1.4-.969-5.544-1.76A18.753,18.753,0,0,0,353.727,291.2Z" transform="translate(33.977 -227.887)" fill="#263238"/>
      <path id="Path_46915" data-name="Path 46915" d="M243.816,409.474c1.1-.351.729-1.41-.5-1.41H220.774c-42.932-4.546-72.929,1.547-54.026,2.984s-1.332,1.134-15.136,6.356,102.67,6.538,113.265,0C274.645,411.374,228.6,414.35,243.816,409.474Z" transform="translate(-89.581 -140.318)" fill="#263238"/>
      <path id="Path_46916" data-name="Path 46916" d="M385.091,490.824l-196.172-6.5-8.141-190.21,231.657,5.181Z" transform="translate(-69.423 -215.024)"/>
      <path id="Path_46917" data-name="Path 46917" d="M229.067,487.038a.832.832,0,0,1-.829-.764L212.511,295.232a.833.833,0,0,1,1.66-.137L229.9,486.137a.833.833,0,0,1-.763.9C229.112,487.036,229.089,487.038,229.067,487.038Z" transform="translate(-48.314 -214.876)" fill="#263238"/>
      <g id="Group_17175" data-name="Group 17175" transform="translate(315.667 84.268)">
        <path id="Path_46918" data-name="Path 46918" d="M303.469,488.754l52.726-8.027L372.8,303.86l-41.989-6.638Z" transform="translate(-303.469 -297.222)"/>
        <path id="Path_46919" data-name="Path 46919" d="M303.469,488.754l52.726-8.027L372.8,303.86l-41.989-6.638Z" transform="translate(-303.469 -297.222)" opacity="0.2"/>
      </g>
      <path id="Path_46920" data-name="Path 46920" d="M197.674,439.973l-4.836-113.008a20.431,20.431,0,0,1,20.869-21.3l146.642,3.279a20.431,20.431,0,0,1,19.768,23.314L363.859,446.148a20.431,20.431,0,0,1-20.9,17.532L217.41,459.52A20.434,20.434,0,0,1,197.674,439.973Z" transform="translate(-61.413 -207.34)" fill="#263238"/>
      <g id="Group_17176" data-name="Group 17176" transform="translate(151.231 133.004)">
        <path id="Path_46921" data-name="Path 46921" d="M205.595,326.488l22.688.723-.186,5.848-14.2-.451-.138,4.355,13.176.42-.178,5.587-13.176-.42-.172,5.4,14.614.465-.2,6.2-23.1-.736Z" transform="translate(-204.724 -326.488)" fill="#fff"/>
        <path id="Path_46922" data-name="Path 46922" d="M221.4,354.416l.871-27.4,14.11.448a20.5,20.5,0,0,1,5.978.864,6.4,6.4,0,0,1,3.266,2.6,7.739,7.739,0,0,1-2.728,10.979,10.234,10.234,0,0,1-3.007.989,5.73,5.73,0,0,1,3.48,2.563,10.882,10.882,0,0,1,1.132,1.74l3.847,8.07-9.567-.3-4.258-8.516a6.411,6.411,0,0,0-1.465-2.16,3.562,3.562,0,0,0-2.055-.7l-.746-.023-.355,11.119Zm9.022-16.025,3.569.113a12.766,12.766,0,0,0,2.255-.3,2.233,2.233,0,0,0,1.4-.816,2.777,2.777,0,0,0-.193-3.635,5.1,5.1,0,0,0-3.136-.811l-3.719-.118Z" transform="translate(-193.63 -326.135)" fill="#fff"/>
        <path id="Path_46923" data-name="Path 46923" d="M239.277,354.985l.873-27.4,14.11.448a20.487,20.487,0,0,1,5.977.864,6.4,6.4,0,0,1,3.266,2.6,7.738,7.738,0,0,1-2.728,10.979,10.236,10.236,0,0,1-3.007.989,8.527,8.527,0,0,1,2.173,1.079,8.619,8.619,0,0,1,1.307,1.484,10.882,10.882,0,0,1,1.132,1.74l3.847,8.07-9.565-.3-4.26-8.516a6.367,6.367,0,0,0-1.465-2.16,3.545,3.545,0,0,0-2.053-.7l-.748-.023-.355,11.119Zm9.022-16.027,3.569.115a12.926,12.926,0,0,0,2.255-.3,2.233,2.233,0,0,0,1.4-.816,2.777,2.777,0,0,0-.193-3.635,5.092,5.092,0,0,0-3.136-.811l-3.719-.118Z" transform="translate(-181.737 -325.756)" fill="#fff"/>
        <path id="Path_46924" data-name="Path 46924" d="M256.321,341.851q.215-6.709,4.07-10.328t10.528-3.407q6.842.22,10.425,4.008t3.372,10.4a16.882,16.882,0,0,1-1.867,7.827,11.544,11.544,0,0,1-4.824,4.636,15.443,15.443,0,0,1-7.67,1.467,17.537,17.537,0,0,1-7.625-1.72,11.551,11.551,0,0,1-4.774-4.829A15.519,15.519,0,0,1,256.321,341.851Zm8.465.306q-.132,4.149,1.352,6.012a5.841,5.841,0,0,0,8.418.3q1.551-1.729,1.7-6.326.125-3.867-1.379-5.7a5.343,5.343,0,0,0-4.177-1.92,5.144,5.144,0,0,0-4.17,1.684Q264.919,337.97,264.785,342.157Z" transform="translate(-170.406 -325.413)" fill="#fff"/>
        <path id="Path_46925" data-name="Path 46925" d="M275.907,356.15l.873-27.4,14.11.45a20.487,20.487,0,0,1,5.977.864,6.388,6.388,0,0,1,3.266,2.6,7.739,7.739,0,0,1-2.728,10.979,10.185,10.185,0,0,1-3.007.989,8.5,8.5,0,0,1,2.173,1.081,8.62,8.62,0,0,1,1.307,1.484,10.581,10.581,0,0,1,1.131,1.74l3.848,8.068-9.567-.3-4.258-8.518a6.409,6.409,0,0,0-1.465-2.16,3.545,3.545,0,0,0-2.055-.7l-.746-.025-.355,11.121Zm9.022-16.025,3.569.113a12.709,12.709,0,0,0,2.255-.3,2.241,2.241,0,0,0,1.4-.816,2.777,2.777,0,0,0-.193-3.635,5.082,5.082,0,0,0-3.136-.811l-3.719-.118Z" transform="translate(-157.368 -324.981)" fill="#fff"/>
      </g>
      <path id="Path_46926" data-name="Path 46926" d="M337.167,383.8a2.18,2.18,0,0,1-1.615-.711L321.3,367.49l-15.382,14.055a2.187,2.187,0,0,1-3.089-.138l-14.255-15.6-15.382,14.053a2.187,2.187,0,0,1-3.087-.138l-14.256-15.6-15.382,14.055a2.183,2.183,0,0,1-3.087-.138l-14.256-15.6-15.382,14.055a2.185,2.185,0,1,1-2.948-3.227l16.994-15.529a2.184,2.184,0,0,1,3.089.138l14.256,15.6,15.38-14.055a2.185,2.185,0,0,1,3.089.138l14.255,15.6L287.236,361.1a2.186,2.186,0,0,1,3.089.138l14.255,15.6,15.382-14.055a2.181,2.181,0,0,1,3.087.138l15.732,17.216a2.186,2.186,0,0,1-1.614,3.66Z" transform="translate(-53.922 -173.081)" fill="#fff"/>
      <g id="Group_17178" data-name="Group 17178" transform="translate(0 224.077)">
        <path id="Path_46927" data-name="Path 46927" d="M133.627,436.945l-10.421-4.971-9.3-45.24,5.046-5.557Z" transform="translate(-113.909 -381.178)"/>
        <g id="Group_17177" data-name="Group 17177" transform="translate(5.046)">
          <path id="Path_46928" data-name="Path 46928" d="M131.612,436.945l13.83-8.079-11.856-37.275-16.646-10.414Z" transform="translate(-116.939 -381.178)"/>
          <path id="Path_46929" data-name="Path 46929" d="M131.612,436.945l13.83-8.079-11.856-37.275-16.646-10.414Z" transform="translate(-116.939 -381.178)" opacity="0.2"/>
        </g>
      </g>
      <path id="Path_46930" data-name="Path 46930" d="M265.644,436.929c-.393,0-.778-.005-1.151-.015a8.326,8.326,0,1,1,.456-16.646c12.827.42,39.976-7.462,55.485-22.516a8.309,8.309,0,0,1,3.407-2c26.291-7.89,36.076,8.05,36.481,8.733l-14.335,8.476a2.256,2.256,0,0,0,.191.3c-.158-.22-3.882-5.062-15.738-2.067C310.979,428.964,281.1,436.929,265.644,436.929Z" transform="translate(-19.118 -148.861)" fill="#263238"/>
      <g id="Group_17180" data-name="Group 17180" transform="translate(212.881 241.313)">
        <path id="Path_46931" data-name="Path 46931" d="M274.467,449.353l-30.329-1.911-2.393-55.913,40.76,1.523Z" transform="translate(-241.745 -391.528)"/>
        <g id="Group_17179" data-name="Group 17179" transform="translate(32.722 1.523)">
          <path id="Path_46932" data-name="Path 46932" d="M261.395,448.745l7.089-7.056,4.395-34.865-3.446-14.381Z" transform="translate(-261.395 -392.443)"/>
          <path id="Path_46933" data-name="Path 46933" d="M261.395,448.745l7.089-7.056,4.395-34.865-3.446-14.381Z" transform="translate(-261.395 -392.443)" opacity="0.2"/>
        </g>
      </g>
      <path id="Path_46934" data-name="Path 46934" d="M391.576,473.306a4.98,4.98,0,0,1-3.019-1.017c-17.309-13.157-40.707-36.513-49.686-59.045a5.066,5.066,0,0,1-.285-1.022c-4.378-26.031-8.561-80.832-8.738-83.153a5,5,0,1,1,9.963-.754c.043.56,4.266,55.9,8.539,81.72,8.954,21.908,33.234,44.406,46.253,54.3a5,5,0,0,1-3.027,8.974Z" transform="translate(29.738 -195.343)" fill="#263238"/>
      <path id="Path_46935" data-name="Path 46935" d="M386.8,420.745c-3.863,0-8.241-1.752-13.014-5.2a5,5,0,0,1,5.858-8.1c4.125,2.986,6.378,3.309,7.156,3.309a5,5,0,0,1,0,9.992Z" transform="translate(57.605 -140.257)" fill="#263238"/>
      <path id="Path_46936" data-name="Path 46936" d="M373.9,416.765c5.346-15.878,27.26-12.741,34.807-10.383s14.346,5.326,18.433,8,4.155,7.136-1.3,9.685c-6.721,3.144-23.583.355-23.583.355,8.729,3.822-.017,9.945-15.329,3.93C381.946,426.392,372.011,422.584,373.9,416.765Z" transform="translate(58.896 -141.625)"/>
      <path id="Path_46937" data-name="Path 46937" d="M354.128,341.772c-1.983,13.492-13.156,23.44-22.245,22.1S322.416,350.491,324.4,337s5.577-23.317,14.664-21.981S356.111,328.282,354.128,341.772Z" transform="translate(25.474 -201.195)" fill="#263238"/>
      <circle id="Ellipse_366" data-name="Ellipse 366" cx="1.365" cy="1.365" r="1.365" transform="translate(158.444 83.991)" fill="#263238"/>
      <path id="Path_46938" data-name="Path 46938" d="M219.3,304.324a1.365,1.365,0,1,1-1.364-1.366A1.363,1.363,0,0,1,219.3,304.324Z" transform="translate(-45.613 -209.138)" fill="#263238"/>
      <path id="Path_46939" data-name="Path 46939" d="M220.215,401.229a1.365,1.365,0,1,1-1.364-1.366A1.365,1.365,0,0,1,220.215,401.229Z" transform="translate(-45.003 -144.671)" fill="#263238"/>
      <path id="Path_46940" data-name="Path 46940" d="M227.729,407.132a1.365,1.365,0,1,1-1.366-1.366A1.365,1.365,0,0,1,227.729,407.132Z" transform="translate(-40.004 -140.744)" fill="#263238"/>
    </g>
  </g>
  <g id="Robot_Parts" data-name="Robot Parts" transform="translate(125.041 583.588)">
    <g id="Group_17185" data-name="Group 17185">
      <path id="Path_46941" data-name="Path 46941" d="M87.448,423.749a16.066,16.066,0,0,1-12.211-6.576.832.832,0,1,1,1.369-.948c3.107,4.488,9.957,6.879,13,5.464a2.329,2.329,0,0,0,.778-.565,10.107,10.107,0,0,1-5.87-7.464c-.378-2.11-.678-4.962,1.064-5.355,2.388-.538,5.512,5.239,6.714,9.617a5.928,5.928,0,0,1,.216,2.236,7.476,7.476,0,0,0,2.976.233,3.213,3.213,0,0,0,2.288-1.241c-2.022-1.367-3.384-3.777-3.837-6.976-.646-4.554-.162-5.347.343-5.737a1.121,1.121,0,0,1,1.146-.13c1.78.758,3.938,7.217,4.351,10.874a5.145,5.145,0,0,1,0,1.154,6.384,6.384,0,0,0,2.246.436,7.272,7.272,0,0,0,4.012-1.047,5.739,5.739,0,0,1-.668-.491c-1.729-1.477-2.425-3.837-2.133-7.212.226-2.611.821-4.037,1.87-4.486a1.9,1.9,0,0,1,2.012.4c1.8,1.437,3.477,5.99,2.873,9.252a4.887,4.887,0,0,1-.836,1.918c3.056.526,7.355-.333,11.062-1.247a.832.832,0,1,1,.4,1.615c-4.513,1.116-9.37,2.023-12.8,1.029a9.466,9.466,0,0,1-5.825,1.935,8.088,8.088,0,0,1-2.729-.513,4.689,4.689,0,0,1-3.537,2.117,9.026,9.026,0,0,1-3.727-.32,3.791,3.791,0,0,1-1.687,1.475A6.855,6.855,0,0,1,87.448,423.749Zm-1.44-13.783c-.095.255-.27,1.1.142,3.4a8.46,8.46,0,0,0,4.728,6.176,5.051,5.051,0,0,0-.193-1.181C89.376,413.6,86.89,410.324,86.007,409.966Zm9.279-1.452a23.047,23.047,0,0,0,.295,3.427,8.572,8.572,0,0,0,2.53,5.367A26.288,26.288,0,0,0,95.286,408.514Zm10.476-1.447h0s-.626.318-.868,3.1c-.243,2.8.266,4.7,1.555,5.8a4.332,4.332,0,0,0,1,.631,3.555,3.555,0,0,0,.9-1.712,10.413,10.413,0,0,0-1.992-7.377C106.024,407.136,105.809,407.067,105.762,407.067Z" transform="translate(-75.088 -405.401)"/>
      <g id="Group_17182" data-name="Group 17182" transform="translate(238.681 15.283)">
        <path id="Path_46942" data-name="Path 46942" d="M230.8,430.231l4.513-7.827-4.513-7.826h-4.831L228.7,422.4l-2.729,7.827Z" transform="translate(-213.391 -414.578)"/>
        <path id="Path_46943" data-name="Path 46943" d="M230.041,425.595a4.072,4.072,0,1,1,0-8.143l-7.672-1.535-2.037,6.2,3.424,5.227Z" transform="translate(-217.142 -413.688)"/>
        <path id="Path_46944" data-name="Path 46944" d="M231.972,414.578H222.93l-4.513,7.827,4.513,7.827h9.042l4.513-7.827Zm-4.513,11.907a4.072,4.072,0,1,1,4.063-4.08A4.087,4.087,0,0,1,227.459,426.485Z" transform="translate(-218.417 -414.578)"/>
      </g>
      <g id="Group_17183" data-name="Group 17183" transform="translate(567.504 3.136)">
        <path id="Path_46945" data-name="Path 46945" d="M419.228,418.909l-3.352-5.813,3.352-5.812h3.588L420.79,413.1l2.027,5.813Z" transform="translate(-415.877 -407.284)"/>
        <path id="Path_46946" data-name="Path 46946" d="M419.9,415.466a3.024,3.024,0,1,0,0-6.048l5.7-1.141,1.512,4.6-2.543,3.882Z" transform="translate(-413.199 -406.623)"/>
        <path id="Path_46947" data-name="Path 46947" d="M420.949,407.284h6.716l3.351,5.812-3.351,5.813h-6.716L417.6,413.1Zm3.352,8.843a3.024,3.024,0,1,0-3.019-3.031A3.035,3.035,0,0,0,424.3,416.127Z" transform="translate(-414.732 -407.284)"/>
      </g>
      <g id="Group_17184" data-name="Group 17184" transform="translate(433.239 10.821)">
        <path id="Path_46948" data-name="Path 46948" d="M344.371,421.744h7.524a3.572,3.572,0,0,0,3.562-3.562h0a3.573,3.573,0,0,0-3.562-3.562h-7.524a3.572,3.572,0,0,0-3.562,3.562h0A3.571,3.571,0,0,0,344.371,421.744Z" transform="translate(-331.552 -410.088)"/>
        <path id="Path_46949" data-name="Path 46949" d="M336.049,416.719a7.419,7.419,0,1,1,3.332,10.291A7.656,7.656,0,0,1,336.049,416.719Z" transform="translate(-335.25 -411.782)"/>
        <rect id="Rectangle_11574" data-name="Rectangle 11574" width="2.281" height="16.822" transform="matrix(-0.905, -0.426, 0.426, -0.905, 4.941, 16.188)"/>
      </g>
    </g>
  </g>
</svg>
