<svg xmlns="http://www.w3.org/2000/svg" width="336.032" height="269.963" viewBox="0 0 336.032 269.963">
  <g id="Group_18304" data-name="Group 18304" transform="translate(-779 -345)">
    <circle id="Ellipse_366" data-name="Ellipse 366" cx="134.5" cy="134.5" r="134.5" transform="translate(779 345)" opacity="0.08"/>
    <g id="Group_18303" data-name="Group 18303" transform="translate(813.768 355.961)">
      <path id="Path_1280" data-name="Path 1280" d="M400.286,625.548c4.836-4.086,7.774-10.542,7-16.827s-5.542-12.062-11.731-13.4-13.245,2.36-15.125,8.406c-1.035-11.657-2.227-23.8-8.424-33.728a35.72,35.72,0,0,0-25.865-16.57,32.049,32.049,0,0,0-28.194,11.509c-6.569,8.314-8.178,20.4-3.577,29.946,3.389,7.032,9.634,12.265,16.177,16.522a104.4,104.4,0,0,0,71.405,15.621" transform="matrix(0.978, 0.208, -0.208, 0.978, -177.086, -440.063)" opacity="0.16"/>
      <path id="Path_1281" data-name="Path 1281" d="M341.958,559.955A172.271,172.271,0,0,1,392.576,628.4c.483,1.183-1.438,1.7-1.916.528a170.5,170.5,0,0,0-50.107-67.568c-.992-.808.421-2.206,1.4-1.4Z" transform="translate(-325.341 -373.436)" fill="#fff"/>
      <path id="Path_1282" data-name="Path 1282" d="M481.055,625.548c-4.836-4.086-7.774-10.542-7-16.827s5.542-12.062,11.731-13.4,13.245,2.36,15.125,8.406c1.035-11.657,2.227-23.8,8.424-33.728a35.72,35.72,0,0,1,25.865-16.57,32.049,32.049,0,0,1,28.193,11.509c6.57,8.314,8.178,20.4,3.577,29.946-3.389,7.032-9.634,12.265-16.177,16.522a104.4,104.4,0,0,1-71.405,15.621" transform="translate(-389.179 -370.348)" opacity="0.16"/>
      <path id="Path_1283" data-name="Path 1283" d="M578.872,559.955A172.271,172.271,0,0,0,528.254,628.4c-.483,1.183,1.438,1.7,1.916.528a170.353,170.353,0,0,1,50.107-67.569c.992-.808-.421-2.206-1.4-1.4Z" transform="translate(-415.078 -373.435)" fill="#fff"/>
      <circle id="Ellipse_364" data-name="Ellipse 364" cx="16.2" cy="16.2" r="16.2" transform="translate(90.027 83.612)" fill="#f2f2f2"/>
      <path id="Path_1284" data-name="Path 1284" d="M379.62,287.388H491.232v6.106H393.868a43.592,43.592,0,0,0-43.593,43.593v69.376H338.062a2.036,2.036,0,0,1-2.035-2.035V330.98a43.592,43.592,0,0,1,43.593-43.592Z" transform="translate(-323.341 -243.42)" fill="#f2f2f2"/>
      <path id="Path_1285" data-name="Path 1285" d="M460.527,607.507V514.75H487.7v92.757a2.354,2.354,0,0,1-2.352,2.352H462.879A2.354,2.354,0,0,1,460.527,607.507Z" transform="translate(-382.78 -351.968)"/>
      <path id="Path_1286" data-name="Path 1286" d="M325.027,400.965V325.54a45.341,45.341,0,0,1,45.289-45.29H485.458V403.578H327.64A2.616,2.616,0,0,1,325.027,400.965ZM484.413,281.3h-114.1a44.294,44.294,0,0,0-44.244,44.244v75.426a1.569,1.569,0,0,0,1.568,1.568H484.412Z" transform="translate(-318.089 -240.012)" fill="#3f3d56"/>
      <path id="Path_1287" data-name="Path 1287" d="M469.194,311.423a9.417,9.417,0,0,1-9.406-9.406V234.6a1.569,1.569,0,0,0-1.568-1.568H421.64a2.616,2.616,0,0,1-2.613-2.613V205.863a2.616,2.616,0,0,1,2.613-2.613h54.348a2.616,2.616,0,0,1,2.613,2.613v96.154A9.417,9.417,0,0,1,469.194,311.423Z" transform="translate(-362.967 -203.25)"/>
      <path id="Path_1288" data-name="Path 1288" d="M612.814,278.25h0A29.725,29.725,0,0,1,642.6,307.912v85.864h58.529a8.865,8.865,0,0,1,8.884,8.847H583.027V307.912a29.725,29.725,0,0,1,29.787-29.662Z" transform="translate(-441.265 -239.057)"/>
      <path id="Path_1289" data-name="Path 1289" d="M626.3,310.615l6.168,25.479L753.12,306.886l-6.168-25.479a1.9,1.9,0,0,0-1.232-1.356,1.879,1.879,0,0,0-.7-.1l-69.743-36.111a1.924,1.924,0,0,0-2.433.585l-33.612,46.872-12.671,17.675a.269.269,0,0,0-.047.219A1.9,1.9,0,0,0,626.3,310.615Z" transform="translate(-461.899 -222.526)" fill="#fff"/>
      <path id="Path_1290" data-name="Path 1290" d="M626.76,309.186a.256.256,0,0,0,.106.165.292.292,0,0,0,.226.045.28.28,0,0,0,.156-.108l.043-.06.66-.923,11.982-16.7,33.6-46.861a1.369,1.369,0,0,1,1.736-.416l69.2,35.831.621.322a.681.681,0,0,0,.077.027.847.847,0,0,1,.142-.014.269.269,0,0,0,.151-.128.274.274,0,0,0-.114-.37l-.086-.046-69.742-36.111a1.924,1.924,0,0,0-2.433.585l-33.612,46.872-12.671,17.675a.268.268,0,0,0-.047.218Z" transform="translate(-462.141 -222.526)" fill="#3f3d56"/>
      <path id="Path_1291" data-name="Path 1291" d="M694.216,302.535l2.686.3,19.932,2.208,13.214,1.463.781.087,16.488-12.879.632-.493,3.894-3.042L765.7,279.356l.083-.76,4.928-44.479a2.327,2.327,0,0,0-2.053-2.567l-65.769-7.285a2.329,2.329,0,0,0-2.567,2.053l-3.475,31.374-1.928,17.394-1.725,15.562-.8,7.227-.233,2.093A2.329,2.329,0,0,0,694.216,302.535Z" transform="translate(-493.361 -213.277)" fill="#e6e6e6"/>
      <path id="Path_1292" data-name="Path 1292" d="M727.913,293.219l28.489,3.155,10.1,1.119a3.418,3.418,0,1,0,.752-6.793l-12.566-1.392-26.024-2.886a3.419,3.419,0,1,0-.754,6.8Z" transform="translate(-508.984 -242.948)" fill="#fff"/>
      <path id="Path_1293" data-name="Path 1293" d="M725.012,317.368c.074.013.147.026.222.033l33.071,3.664,5.522.613a3.419,3.419,0,0,0,.752-6.8L756.594,314l-26.2-2.9-4.409-.489a3.417,3.417,0,0,0-.977,6.761Z" transform="translate(-507.706 -254.495)" fill="#fff"/>
      <path id="Path_1294" data-name="Path 1294" d="M719.977,340.212a3.417,3.417,0,0,0,2.55,1.633l13.555,1.5,24.141,2.675h.005l.772.086,3.894-3.042a3.382,3.382,0,0,0,0-.7,3.425,3.425,0,0,0-3.024-3.043l-3.354-.373-13.3-1.472-9.572-1.062-12.364-1.37a3.418,3.418,0,0,0-3.3,5.163Z" transform="translate(-506.413 -266.164)" fill="#fff"/>
      <path id="Path_1295" data-name="Path 1295" d="M754.081,263.744l7.089.785,3.131.348,4.729.523a3.419,3.419,0,1,0,.752-6.8l-14.945-1.654a3.418,3.418,0,0,0-.755,6.794Z" transform="translate(-521.478 -228.877)" fill="#fff"/>
      <path id="Path_1296" data-name="Path 1296" d="M645.884,289.336l8.642,35.7,14.424,2.743,13.342,2.54,14.315,2.724,4.574.87a1.919,1.919,0,0,0,1.536-.372l3.67-2.866,2.323-1.814L725.2,315.981l-10.484-43.308a2.3,2.3,0,0,0-.65-1.128,2.325,2.325,0,0,0-2.155-.584L647.6,286.53A2.326,2.326,0,0,0,645.884,289.336Z" transform="translate(-471.243 -235.546)"/>
      <path id="Path_1297" data-name="Path 1297" d="M683.776,348.324a3.421,3.421,0,0,0,4.126,2.518l37.737-9.135a3.423,3.423,0,0,0,2.518-4.126,1.115,1.115,0,0,0-.037-.129,3.417,3.417,0,0,0-4.089-2.389L686.294,344.2A3.421,3.421,0,0,0,683.776,348.324Z" transform="translate(-489.319 -266.135)" fill="#fff"/>
      <path id="Path_1298" data-name="Path 1298" d="M690.082,369.656l13.342,2.54,28.263-6.842a3.418,3.418,0,1,0-1.608-6.644l-37.738,9.135a3.393,3.393,0,0,0-1.958,1.312A3.448,3.448,0,0,0,690.082,369.656Z" transform="translate(-492.375 -277.424)" fill="#fff"/>
      <path id="Path_1299" data-name="Path 1299" d="M743.008,387.654l4.574.87a1.92,1.92,0,0,0,1.536-.372l3.669-2.866Z" transform="translate(-517.644 -290.159)" fill="#fff"/>
      <path id="Path_1300" data-name="Path 1300" d="M698.327,316.807a3.421,3.421,0,0,0,4.126,2.518l14.617-3.538a3.423,3.423,0,0,0,2.518-4.126,3.381,3.381,0,0,0-.63-1.3,3.421,3.421,0,0,0-3.5-1.219l-14.617,3.538A3.418,3.418,0,0,0,698.327,316.807Z" transform="translate(-496.266 -253.76)" fill="#fff"/>
      <path id="Path_1301" data-name="Path 1301" d="M672.947,350.479l14.318,2.724,4.573.871a1.928,1.928,0,0,0,1.535-.372l3.672-2.867-1.289.312-2.72,2.122a1.377,1.377,0,0,1-1.1.265l-3.386-.644-14.318-2.724Zm42.766-14.914.139.576.635-.494Zm-42.766,14.914,14.318,2.724,4.573.871a1.928,1.928,0,0,0,1.535-.372l3.672-2.867-1.289.312-2.72,2.122a1.377,1.377,0,0,1-1.1.265l-3.386-.644-14.318-2.724Zm0,0,14.318,2.724,4.573.871a1.928,1.928,0,0,0,1.535-.372l3.672-2.867-1.289.312-2.72,2.122a1.377,1.377,0,0,1-1.1.265l-3.386-.644-14.318-2.724ZM626.3,343.8l16.156,66.738a1.916,1.916,0,0,0,2.311,1.41L761.7,383.638a1.916,1.916,0,0,0,1.41-2.311l-16.156-66.738a1.9,1.9,0,0,0-1.232-1.356,1.88,1.88,0,0,0-.7-.1,1.808,1.808,0,0,0-.791.208,1.66,1.66,0,0,0-.317.2l-9.6,7.494-13.937,10.887-4.669,3.647v0h0l-17.123,13.366-2.831,2.215-2.72,2.122a1.377,1.377,0,0,1-1.1.266l-3.386-.644-14.318-2.724-14.33-2.725-31.386-5.973a1.875,1.875,0,0,0-.809.017,1.918,1.918,0,0,0-.934.541,2.152,2.152,0,0,0-.258.34,1.9,1.9,0,0,0-.218,1.43Zm46.647,6.682,14.318,2.724,4.573.871a1.928,1.928,0,0,0,1.535-.372l3.672-2.867-1.289.312-2.72,2.122a1.377,1.377,0,0,1-1.1.265l-3.386-.644-14.318-2.724Zm0,0,14.318,2.724,4.573.871a1.928,1.928,0,0,0,1.535-.372l3.672-2.867-1.289.312-2.72,2.122a1.377,1.377,0,0,1-1.1.265l-3.386-.644-14.318-2.724Zm0,0,14.318,2.724,4.573.871a1.928,1.928,0,0,0,1.535-.372l3.672-2.867-1.289.312-2.72,2.122a1.377,1.377,0,0,1-1.1.265l-3.386-.644-14.318-2.724Z" transform="translate(-461.899 -255.708)" fill="#fff"/>
      <path id="Path_1302" data-name="Path 1302" d="M672.947,350.479l14.318,2.725,4.573.871a1.928,1.928,0,0,0,1.535-.372l3.672-2.867-1.289.312-2.72,2.122a1.377,1.377,0,0,1-1.1.266l-3.386-.644-14.318-2.724Zm42.766-14.914.139.576.635-.494Zm-42.766,14.914,14.318,2.725,4.573.871a1.928,1.928,0,0,0,1.535-.372l3.672-2.867-1.289.312-2.72,2.122a1.377,1.377,0,0,1-1.1.266l-3.386-.644-14.318-2.724Zm0,0,14.318,2.725,4.573.871a1.928,1.928,0,0,0,1.535-.372l3.672-2.867-1.289.312-2.72,2.122a1.377,1.377,0,0,1-1.1.266l-3.386-.644-14.318-2.724Zm-45.9-8.07.071.053c.012-.019.033-.037.048-.057a1.381,1.381,0,0,1,1.246-.4l31.19,5.933,13.341,2.542,14.317,2.725,4.573.871a1.927,1.927,0,0,0,1.535-.372l3.672-2.867-1.289.312-2.72,2.122a1.377,1.377,0,0,1-1.1.266l-3.386-.644-14.318-2.724-14.33-2.725-31.386-5.973a1.877,1.877,0,0,0-.809.018Zm-.75,1.388,16.156,66.738a1.916,1.916,0,0,0,2.311,1.41L761.7,383.639a1.916,1.916,0,0,0,1.41-2.311L746.953,314.59a1.9,1.9,0,0,0-1.232-1.356,1.877,1.877,0,0,0-.7-.1,1.807,1.807,0,0,0-.791.208,1.665,1.665,0,0,0-.317.2l-9.6,7.494-13.937,10.887-4.669,3.647v0h0l-17.123,13.366-2.831,2.215-2.72,2.122a1.377,1.377,0,0,1-1.1.266l-3.386-.644-14.318-2.724-14.33-2.725-31.386-5.973a1.877,1.877,0,0,0-.809.018,1.918,1.918,0,0,0-.934.541,2.154,2.154,0,0,0-.258.34,1.9,1.9,0,0,0-.218,1.43Zm.533-.129a1.357,1.357,0,0,1,.241-1.145.178.178,0,0,1,.047-.061c.012-.019.033-.037.048-.057a1.381,1.381,0,0,1,1.246-.4l31.19,5.933,13.341,2.542,14.318,2.725,4.573.871a1.928,1.928,0,0,0,1.535-.372l3.672-2.867,2.322-1.814,16.486-12.881.635-.494,3.891-3.04,13.858-10.822,10.018-7.824a1.361,1.361,0,0,1,.516-.249,1.041,1.041,0,0,1,.159-.026.838.838,0,0,1,.142-.014,1.4,1.4,0,0,1,.471.077,1.372,1.372,0,0,1,.881.968l16.156,66.738a1.369,1.369,0,0,1-1.009,1.654L644.639,411.417a1.368,1.368,0,0,1-1.65-1.01Zm46.114,6.811,14.317,2.724,4.573.871a1.927,1.927,0,0,0,1.535-.372l3.672-2.867-1.289.312-2.72,2.122a1.377,1.377,0,0,1-1.1.266l-3.386-.644-14.318-2.724Zm0,0,14.317,2.724,4.573.871a1.927,1.927,0,0,0,1.535-.372l3.672-2.867-1.289.312-2.72,2.122a1.377,1.377,0,0,1-1.1.266l-3.386-.644-14.318-2.724Zm0,0,14.317,2.724,4.573.871a1.927,1.927,0,0,0,1.535-.372l3.672-2.867-1.289.312-2.72,2.122a1.377,1.377,0,0,1-1.1.266l-3.386-.644-14.318-2.724Z" transform="translate(-461.899 -255.708)" fill="#3f3d56"/>
      <path id="Path_1303" data-name="Path 1303" d="M827.02,414.914a4.248,4.248,0,0,1,3.125-5.122l14.758-3.573a4.243,4.243,0,1,1,2,8.247l-14.758,3.573a4.247,4.247,0,0,1-5.122-3.125Z" transform="translate(-557.696 -300.095)"/>
      <circle id="Ellipse_365" data-name="Ellipse 365" cx="3.658" cy="3.658" r="3.658" transform="translate(102.569 95.109)" fill="#fff"/>
    </g>
  </g>
</svg>
