<svg xmlns="http://www.w3.org/2000/svg" width="60" height="60" viewBox="0 0 60 60">
  <g id="Group_18371" data-name="Group 18371" transform="translate(-951 -887)">
    <circle id="Ellipse_360" data-name="Ellipse 360" cx="30" cy="30" r="30" transform="translate(951 887)" fill="#dd4b39"/>
    <path id="Icon_awesome-google" data-name="Icon awesome-google" d="M22.361,12.192c0,6.484-4.44,11.1-11,11.1a11.364,11.364,0,0,1,0-22.727,10.928,10.928,0,0,1,7.62,2.974L15.891,6.51c-4.046-3.9-11.57-.971-11.57,5.416A7.118,7.118,0,0,0,11.364,19.1a6.145,6.145,0,0,0,6.452-4.9H11.364V10.295H22.182A9.962,9.962,0,0,1,22.361,12.192Z" transform="translate(970 905.438)" fill="#fff"/>
  </g>
</svg>
