<svg xmlns="http://www.w3.org/2000/svg" width="176.436" height="172.427" viewBox="0 0 176.436 172.427">
  <g id="Group_18301" data-name="Group 18301" transform="translate(-1.871 -3.73)">
    <path id="Path_1255" data-name="Path 1255" d="M178.307,89.944c0,6.468-8.014,11.947-9.39,18-1.421,6.248,3.389,14.653.67,20.289-2.764,5.73-12.362,7.195-16.292,12.117-3.948,4.944-3.256,14.622-8.2,18.57-4.922,3.931-14.2,1.116-19.926,3.88-5.638,2.719-9.2,11.752-15.447,13.172-6.051,1.374-13.167-5.186-19.633-5.186s-13.582,6.56-19.633,5.186c-6.247-1.421-9.811-10.453-15.447-13.172-5.73-2.765-15.006.05-19.926-3.88-4.946-3.948-4.252-13.626-8.2-18.572-3.929-4.922-13.526-6.385-16.29-12.115-2.719-5.636,2.088-14.041.67-20.289-1.376-6.049-9.39-11.528-9.39-18s8.014-11.945,9.39-18c1.419-6.248-3.389-14.653-.67-20.289,2.764-5.73,12.362-7.195,16.292-12.115,3.948-4.946,3.256-14.624,8.2-18.572,4.922-3.929,14.2-1.114,19.926-3.88C60.645,14.374,64.21,5.34,70.456,3.92c6.051-1.374,13.167,5.188,19.633,5.188S103.67,2.545,109.721,3.92c6.247,1.421,9.811,10.455,15.447,13.174,5.73,2.764,15.006-.052,19.926,3.878,4.946,3.95,4.252,13.628,8.2,18.572,3.931,4.922,13.528,6.387,16.292,12.115,2.719,5.638-2.09,14.043-.67,20.289C170.293,78,178.307,83.478,178.307,89.944Z" transform="translate(0 0)" fill="#15bf02"/>
    <g id="Group_18300" data-name="Group 18300" transform="translate(51.344 51.199)">
      <g id="Group_18297" data-name="Group 18297" transform="translate(18.398 9.735)">
        <g id="Group_18296" data-name="Group 18296">
          <path id="Path_1256" data-name="Path 1256" d="M95.537,35.6a2.918,2.918,0,0,0-4.129,0L56.371,70.535,43.731,56.806a2.921,2.921,0,0,0-4.3,3.957l14.7,15.963a2.913,2.913,0,0,0,2.087.943h.061a2.922,2.922,0,0,0,2.063-.852l37.188-37.09A2.918,2.918,0,0,0,95.537,35.6Z" transform="translate(-38.661 -34.738)" fill="#fff"/>
        </g>
      </g>
      <g id="Group_18299" data-name="Group 18299">
        <g id="Group_18298" data-name="Group 18298">
          <path id="Path_1257" data-name="Path 1257" d="M103.258,65.286a2.921,2.921,0,0,0-2.92,2.92,32.9,32.9,0,1,1-32.9-32.9,2.92,2.92,0,1,0,0-5.841,38.746,38.746,0,1,0,38.745,38.745A2.92,2.92,0,0,0,103.258,65.286Z" transform="translate(-28.688 -29.461)" fill="#fff"/>
        </g>
      </g>
    </g>
  </g>
</svg>
