<svg xmlns="http://www.w3.org/2000/svg" width="60" height="60" viewBox="0 0 60 60">
  <g id="Group_18370" data-name="Group 18370" transform="translate(-933 -883.977)">
    <circle id="Ellipse_361" data-name="Ellipse 361" cx="30" cy="30" r="30" transform="translate(933 883.977)" fill="#26a6d1"/>
    <path id="Path_1252" data-name="Path 1252" d="M-394.343,267.151a10.046,10.046,0,0,1-2.829.754,4.82,4.82,0,0,0,2.166-2.646,9.985,9.985,0,0,1-3.129,1.16,4.988,4.988,0,0,0-3.595-1.508,4.852,4.852,0,0,0-4.923,4.778,4.639,4.639,0,0,0,.127,1.09,14.127,14.127,0,0,1-10.15-4.994,4.646,4.646,0,0,0-.667,2.4,4.737,4.737,0,0,0,2.19,3.977,5,5,0,0,1-2.232-.6v.06a4.821,4.821,0,0,0,3.951,4.688,5.094,5.094,0,0,1-1.3.168,4.948,4.948,0,0,1-.926-.086,4.911,4.911,0,0,0,4.6,3.32,10.073,10.073,0,0,1-6.117,2.046,10.322,10.322,0,0,1-1.176-.067,14.253,14.253,0,0,0,7.55,2.149,13.7,13.7,0,0,0,14.012-13.6l-.014-.619A9.821,9.821,0,0,0-394.343,267.151Z" transform="translate(1370.725 641.179)" fill="#fff"/>
  </g>
</svg>
