<svg xmlns="http://www.w3.org/2000/svg" width="43.181" height="43.182" viewBox="0 0 43.181 43.182">
  <g id="Group_18096" data-name="Group 18096" transform="translate(-2224.346 -424.943)">
    <g id="Group_24" data-name="Group 24" transform="translate(2224.346 424.943)">
      <path id="Path_53" data-name="Path 53" d="M2259.979,468.125h-28.085a7.556,7.556,0,0,1-7.548-7.548V432.491a7.556,7.556,0,0,1,7.548-7.548h28.085a7.556,7.556,0,0,1,7.548,7.548v28.086A7.556,7.556,0,0,1,2259.979,468.125Zm-28.085-40.8a5.171,5.171,0,0,0-5.165,5.164v28.086a5.171,5.171,0,0,0,5.165,5.165h28.085a5.17,5.17,0,0,0,5.164-5.165V432.491a5.17,5.17,0,0,0-5.164-5.164Z" transform="translate(-2224.346 -424.943)"/>
    </g>
    <path id="Path_54" data-name="Path 54" d="M2307.118,493.693a1.192,1.192,0,0,0-1.253,1.126l-.385,7.158-14.627-16.288h0l-2.279-2.538,7.158.385a1.192,1.192,0,1,0,.127-2.38l-10.031-.539c-.018,0-.037,0-.055,0s-.06,0-.091,0-.059.006-.088.01-.057.008-.084.015-.061.016-.091.025-.034.008-.051.014l-.026.011c-.03.011-.058.025-.087.038s-.05.023-.074.037-.051.031-.076.048-.048.031-.069.049-.046.038-.067.057-.043.038-.062.059-.039.043-.057.066-.038.045-.055.068-.031.047-.045.071-.032.053-.047.081c0,.009-.009.016-.013.025s-.013.033-.02.049-.024.058-.034.088-.016.055-.024.082-.013.057-.019.086-.009.06-.012.09-.006.036-.007.055l-.539,10.032a1.192,1.192,0,0,0,2.381.128l.385-7.159,2.28,2.539h0l4.162,4.636,8.184,9.113h0l2.28,2.538-7.158-.385a1.192,1.192,0,1,0-.129,2.38l10.031.539c.019,0,.037,0,.056,0s.06,0,.091,0,.059-.006.087-.01.056-.008.085-.015.06-.015.091-.025.034-.008.051-.014l.027-.012c.029-.011.057-.024.085-.037s.051-.024.075-.037.05-.03.074-.047.049-.032.072-.05.044-.036.065-.055.043-.039.064-.06.037-.042.056-.064.038-.046.055-.07.029-.046.043-.07a.884.884,0,0,0,.049-.082c0-.009.01-.016.014-.025s.012-.033.019-.049.024-.058.034-.088a.845.845,0,0,0,.023-.083c.008-.029.014-.057.02-.086a.862.862,0,0,0,.012-.09c0-.018.007-.036.007-.055l.539-10.032A1.192,1.192,0,0,0,2307.118,493.693Z" transform="translate(-50.203 -46.827)"/>
  </g>
</svg>
