<svg xmlns="http://www.w3.org/2000/svg" width="39.029" height="44.009" viewBox="0 0 39.029 44.009">
  <g id="Layer_4" transform="translate(-3.466 -0.043)">
    <g id="Group_18083" data-name="Group 18083" transform="translate(3.466 0.043)">
      <path id="Path_1007" data-name="Path 1007" d="M22.987.052l0-.009-.006,0-.008,0,0,.009L3.466,8.171v6.683l.049.131,19.463-8.1L41.92,14.77l.008,0,.51.213.007-.018.05.018V8.176Z" transform="translate(-3.466 -0.043)"/>
      <path id="Path_1008" data-name="Path 1008" d="M39.245,21.687V16.454L22.981,10.393,6.719,16.455v24.54H3.466v3.057H42.5V40.995h-3.25Zm-16.264,19.3H9.971v-18.4h13.01ZM35.99,31.794H26.232V22.6H35.99Z" transform="translate(-3.466 -0.043)"/>
    </g>
  </g>
</svg>
