<svg xmlns="http://www.w3.org/2000/svg" width="42.241" height="45.057" viewBox="0 0 42.241 45.057">
  <g id="_728922_apartment_building_city_architecture_construction_icon" data-name="728922_apartment_building_city_architecture_construction_icon" transform="translate(0)">
    <g id="Group_18082" data-name="Group 18082" transform="translate(5.632 5.632)">
      <g id="Group_18081" data-name="Group 18081">
        <path id="Path_1005" data-name="Path 1005" d="M20,27.264h2.816V24.448H20Zm11.264-2.816H34.08V21.632H31.264Zm5.632,0h2.816V21.632H36.9Zm5.632,0h2.816V21.632H42.528ZM31.264,18.816H34.08V16H31.264Zm5.632,0h2.816V16H36.9Zm5.632,0h2.816V16H42.528Zm-11.264,16.9H34.08V32.9H31.264Zm5.632,0h2.816V32.9H36.9Zm5.632,0h2.816V32.9H42.528ZM31.264,41.344H34.08V38.528H31.264Zm11.264,0h2.816V38.528H42.528ZM31.264,46.976H34.08V44.16H31.264Zm11.264,0h2.816V44.16H42.528Zm8.448-2.816h2.816V41.344H50.976Zm0-8.448v2.816h2.816V35.712Zm0,14.08h2.816V46.976H50.976ZM31.264,30.08H34.08V27.264H31.264Zm5.632,0h2.816V27.264H36.9Zm5.632,0h2.816V27.264H42.528ZM20,32.9h2.816V30.08H20Zm0,5.632h2.816V35.712H20Zm0,5.632h2.816V41.344H20Zm0,5.632h2.816V46.976H20Zm16.9-8.448h2.816V38.528H36.9Z" transform="translate(-20 -16)"/>
      </g>
    </g>
    <path id="Path_1006" data-name="Path 1006" d="M46.241,42.241a2.814,2.814,0,0,1-2.816,2.816H6.816A2.814,2.814,0,0,1,4,42.241V11.264A2.814,2.814,0,0,1,6.816,8.448h8.448V2.816A2.814,2.814,0,0,1,18.08,0H37.792a2.814,2.814,0,0,1,2.816,2.816v16.9h2.816a2.814,2.814,0,0,1,2.816,2.816ZM15.264,11.264H6.816V42.241h8.448ZM37.792,2.816H18.08V42.241h8.448V33.792h2.816v8.448h8.448Zm5.632,19.712H40.609V42.241h2.816Z" transform="translate(-4)" fill-rule="evenodd"/>
  </g>
</svg>
