<svg xmlns="http://www.w3.org/2000/svg" width="66.361" height="39.663" viewBox="0 0 66.361 39.663">
  <g id="_3793936_chair_furniture_home_house_room_icon" data-name="3793936_chair_furniture_home_house_room_icon" transform="translate(-54.182 -135.378)">
    <g id="Group_18104" data-name="Group 18104" transform="translate(71.772 140.634)">
      <path id="Path_1044" data-name="Path 1044" d="M162.876,170.635h-.06a1.644,1.644,0,0,1,0-3.288h.06a1.644,1.644,0,0,1,0,3.288Z" transform="translate(-161.172 -167.347)"/>
    </g>
    <g id="Group_18105" data-name="Group 18105" transform="translate(71.742 147.025)">
      <path id="Path_1045" data-name="Path 1045" d="M162.695,209.508h-.06a1.644,1.644,0,0,1,0-3.288h.06a1.644,1.644,0,1,1,0,3.288Z" transform="translate(-160.991 -206.22)"/>
    </g>
    <g id="Group_18106" data-name="Group 18106" transform="translate(85.703 140.634)">
      <path id="Path_1046" data-name="Path 1046" d="M247.613,170.635h-.06a1.644,1.644,0,1,1,0-3.288h.06a1.644,1.644,0,0,1,0,3.288Z" transform="translate(-245.909 -167.347)"/>
    </g>
    <g id="Group_18107" data-name="Group 18107" transform="translate(85.674 147.025)">
      <path id="Path_1047" data-name="Path 1047" d="M247.432,209.508h-.06a1.644,1.644,0,1,1,0-3.288h.06a1.644,1.644,0,1,1,0,3.288Z" transform="translate(-245.728 -206.22)"/>
    </g>
    <g id="Group_18108" data-name="Group 18108" transform="translate(100.038 140.634)">
      <path id="Path_1048" data-name="Path 1048" d="M334.8,170.635h-.06a1.644,1.644,0,0,1,0-3.288h.06a1.644,1.644,0,1,1,0,3.288Z" transform="translate(-333.098 -167.347)"/>
    </g>
    <g id="Group_18109" data-name="Group 18109" transform="translate(100.008 147.025)">
      <path id="Path_1049" data-name="Path 1049" d="M334.621,209.508h-.059a1.644,1.644,0,1,1,0-3.288h.059a1.644,1.644,0,1,1,0,3.288Z" transform="translate(-332.917 -206.22)"/>
    </g>
    <g id="Group_18110" data-name="Group 18110" transform="translate(59.289 135.378)">
      <path id="Path_1050" data-name="Path 1050" d="M134.64,161.96H91.994a1.644,1.644,0,0,1-1.644-1.644v-10.93a.507.507,0,0,0-.506-.506H86.887a1.644,1.644,0,0,1-1.644-1.644v-8.063a3.8,3.8,0,0,1,3.794-3.794H137.6a3.8,3.8,0,0,1,3.794,3.794v8.063a1.644,1.644,0,0,1-1.644,1.644H136.79a.507.507,0,0,0-.506.506v10.93A1.644,1.644,0,0,1,134.64,161.96Zm-41-3.288H133v-9.286a3.8,3.8,0,0,1,3.794-3.794H138.1v-6.419a.507.507,0,0,0-.506-.506H89.037a.507.507,0,0,0-.506.506v6.419h1.312a3.8,3.8,0,0,1,3.794,3.794v9.286Z" transform="translate(-85.243 -135.378)"/>
    </g>
    <g id="Group_18111" data-name="Group 18111" transform="translate(54.182 145.591)">
      <path id="Path_1051" data-name="Path 1051" d="M116.749,226.949H57.976a3.8,3.8,0,0,1-3.794-3.794V201.294a3.8,3.8,0,0,1,3.794-3.794h5.913a3.8,3.8,0,0,1,3.794,3.794v9.286h39.358v-9.286a3.8,3.8,0,0,1,3.794-3.794h5.913a3.8,3.8,0,0,1,3.794,3.794v21.861A3.8,3.8,0,0,1,116.749,226.949ZM57.976,200.788a.507.507,0,0,0-.506.506v21.861a.507.507,0,0,0,.506.506h58.773a.507.507,0,0,0,.506-.506V201.294a.507.507,0,0,0-.506-.506h-5.913a.507.507,0,0,0-.506.506v10.93a1.644,1.644,0,0,1-1.644,1.644H66.04a1.644,1.644,0,0,1-1.644-1.644v-10.93a.507.507,0,0,0-.506-.506Z" transform="translate(-54.182 -197.5)"/>
    </g>
  </g>
</svg>
