<svg xmlns="http://www.w3.org/2000/svg" width="31.921" height="27.549" viewBox="0 0 31.921 27.549">
  <g id="Group_22" data-name="Group 22" transform="translate(-557.432 61.353)">
    <g id="Group_14" data-name="Group 14" transform="translate(564.768 -57.191)">
      <path id="Path_39" data-name="Path 39" d="M663.293,4.927c0,.183,0,.315,0,.448q0,1.919,0,3.839c0,.583-.175.763-.745.763q-2.981,0-5.962,0c-.562,0-.729-.168-.73-.733q0-3.913,0-7.827A1.84,1.84,0,0,1,657.8-.521q2.254-.009,4.509,0a4.53,4.53,0,0,1,.739.063,1.447,1.447,0,0,1,1.22,1.062.327.327,0,0,0,.367.273q6.018-.008,12.037,0c.281,0,.359-.1.356-.369-.014-1.031.02-2.063-.02-3.093a2.47,2.47,0,0,0-.3-1.093,1.372,1.372,0,0,0-2.434-.041,2.722,2.722,0,0,0-.312.975c-.071.421-.238.651-.575.644s-.537-.261-.524-.708A2.629,2.629,0,0,1,676.5-5.279a2.587,2.587,0,0,1,1.548,2.254c.077,1.138.058,2.284.044,3.426,0,.375.1.478.473.487a1.858,1.858,0,0,1,1.856,1.735,1.969,1.969,0,0,1-1.377,2.233,2.809,2.809,0,0,1-.737.068q-7.248.006-14.5,0Zm.021-1.084c.154.007.3.02.445.02h14.456a2.8,2.8,0,0,0,.372-.016.823.823,0,0,0,.752-.79c.062-.742-.281-1.113-1.038-1.113q-7.284,0-14.568,0c-.133,0-.266.012-.419.019ZM662.172,6.23V.566c-1.529,0-3.028-.013-4.527.008-.446.006-.7.345-.7.843-.005,1.489.006,2.978-.009,4.467,0,.307.107.374.386.372,1.489-.01,2.977,0,4.466-.006C661.907,6.249,662.029,6.237,662.172,6.23Zm-5.211,2.634h5.221V7.347h-5.221Z" transform="translate(-655.854 5.513)"/>
    </g>
    <g id="Group_15" data-name="Group 15" transform="translate(559.167 -45.008)">
      <path id="Path_40" data-name="Path 40" d="M606.115,165.45c-.22.2-.455.374-.7.572.372.775.742,1.532,1.1,2.295a.542.542,0,1,1-.97.466c-.16-.308-.306-.623-.457-.935l-.634-1.31a8.29,8.29,0,0,1-3.775.7q-3-.016-6.007-.016h-.005q-3,0-6.007.016a8.289,8.289,0,0,1-3.775-.7l-.634,1.31c-.151.312-.3.628-.457.935a.542.542,0,1,1-.97-.466c.357-.762.727-1.52,1.1-2.295-.242-.2-.477-.376-.7-.572a7.108,7.108,0,0,1-2.5-5.366c-.01-.531-.006-1.062,0-1.6a.534.534,0,0,1,1.069,0v.079a11.362,11.362,0,0,0,.224,3.034,6.2,6.2,0,0,0,6.02,4.549q3.318.009,6.635,0h.005q3.318,0,6.635,0a6.2,6.2,0,0,0,6.02-4.549,11.367,11.367,0,0,0,.224-3.034v-.079a.534.534,0,0,1,1.069,0c0,.54.007,1.071,0,1.6A7.107,7.107,0,0,1,606.115,165.45Z" transform="translate(-580.716 -157.95)"/>
    </g>
    <g id="Group_16" data-name="Group 16" transform="translate(573.802 -57.5)">
      <path id="Path_41" data-name="Path 41" d="M781.514-7.435a2.209,2.209,0,0,1-2.208,2.2,2.228,2.228,0,0,1-2.238-2.216A2.216,2.216,0,0,1,779.3-9.664,2.2,2.2,0,0,1,781.514-7.435Zm-1.09,0a1.132,1.132,0,0,0-1.114-1.156,1.146,1.146,0,0,0-1.152,1.124,1.156,1.156,0,0,0,1.12,1.16A1.139,1.139,0,0,0,780.425-7.436Z" transform="translate(-777.068 9.664)"/>
    </g>
    <g id="Group_17" data-name="Group 17" transform="translate(569.85 -57.115)">
      <path id="Path_42" data-name="Path 42" d="M725.811-3.622a.873.873,0,0,1-.854.894.907.907,0,0,1-.916-.884.888.888,0,0,1,.869-.885A.857.857,0,0,1,725.811-3.622Z" transform="translate(-724.041 4.498)"/>
    </g>
    <g id="Group_18" data-name="Group 18" transform="translate(572.832 -61.353)">
      <path id="Path_43" data-name="Path 43" d="M765.821-60.462a.856.856,0,0,1-.859.882.886.886,0,0,1-.912-.878.916.916,0,0,1,.909-.894A.886.886,0,0,1,765.821-60.462Z" transform="translate(-764.05 61.353)"/>
    </g>
    <g id="Group_19" data-name="Group 19" transform="translate(573.124 -35.734)">
      <line id="Line_6" data-name="Line 6" y1="0.484" fill="none"/>
    </g>
    <g id="Group_20" data-name="Group 20" transform="translate(573.124 -36.867)">
      <line id="Line_7" data-name="Line 7" y1="0.06" fill="none"/>
    </g>
    <g id="Group_21" data-name="Group 21" transform="translate(557.432 -50.843)">
      <path id="Path_44" data-name="Path 44" d="M563.4,83.809h-3.9a2.074,2.074,0,1,1,0-4.147h3.9a.54.54,0,0,1,0,1.081h-3.9a.993.993,0,1,0,0,1.986h3.9a.54.54,0,0,1,0,1.081Z" transform="translate(-557.432 -79.662)"/>
    </g>
  </g>
</svg>
