<svg xmlns="http://www.w3.org/2000/svg" width="38" height="22.084" viewBox="0 0 38 22.084">
  <g id="Group_23" data-name="Group 23" transform="translate(-1135.835 -376.235)">
    <path id="Path_49" data-name="Path 49" d="M1171.635,502.577h-33.6a2.2,2.2,0,0,0-2.2,2.2v4.982a2.2,2.2,0,0,0,2.2,2.2h1.822v1.994a.6.6,0,1,0,1.2,0v-1.994h27.556v1.994a.6.6,0,1,0,1.2,0v-1.994h1.822a2.2,2.2,0,0,0,2.2-2.2v-4.982A2.2,2.2,0,0,0,1171.635,502.577Zm1,7.182a1,1,0,0,1-1,1h-33.6a1,1,0,0,1-1-1v-4.982a1,1,0,0,1,1-1h33.6a1,1,0,0,1,1,1Z" transform="translate(0 -116.235)"/>
    <path id="Path_50" data-name="Path 50" d="M1186.71,384.624a.6.6,0,0,0,.6-.6v-5.751a.839.839,0,0,1,.838-.838h25.88a.839.839,0,0,1,.838.838v5.751a.6.6,0,0,0,1.2,0v-5.751a2.04,2.04,0,0,0-2.038-2.038h-25.88a2.04,2.04,0,0,0-2.038,2.038v5.751A.6.6,0,0,0,1186.71,384.624Z" transform="translate(-46.253)"/>
    <path id="Path_51" data-name="Path 51" d="M1230.782,425.626a.6.6,0,0,0,.6-.6v-2.608a1.165,1.165,0,0,0-1.086-1.252h-8.754a1.165,1.165,0,0,0-1.086,1.252v2.608a.6.6,0,0,0,1.2,0v-2.608a.254.254,0,0,1,.005-.052h8.517a.254.254,0,0,1,.005.052v2.608A.6.6,0,0,0,1230.782,425.626Z" transform="translate(-77.85 -41.337)"/>
    <path id="Path_52" data-name="Path 52" d="M1398.87,425.626a.6.6,0,0,0,.6-.6v-2.608a1.165,1.165,0,0,0-1.086-1.252h-8.754a1.165,1.165,0,0,0-1.086,1.252v2.608a.6.6,0,1,0,1.2,0v-2.608a.254.254,0,0,1,.005-.052h8.517a.263.263,0,0,1,.005.052v2.608A.6.6,0,0,0,1398.87,425.626Z" transform="translate(-232.491 -41.337)"/>
  </g>
</svg>
