<svg xmlns="http://www.w3.org/2000/svg" width="23.209" height="23.209" viewBox="0 0 23.209 23.209">
  <g id="Group_25" data-name="Group 25" transform="translate(-2224.346 -424.943)">
    <g id="Group_24" data-name="Group 24" transform="translate(2224.346 424.943)">
      <path id="Path_53" data-name="Path 53" d="M2243.5,448.152H2228.4a4.061,4.061,0,0,1-4.057-4.057V429a4.061,4.061,0,0,1,4.057-4.057H2243.5a4.061,4.061,0,0,1,4.057,4.057v15.1A4.061,4.061,0,0,1,2243.5,448.152ZM2228.4,426.224a2.779,2.779,0,0,0-2.776,2.776v15.1a2.779,2.779,0,0,0,2.776,2.776H2243.5a2.779,2.779,0,0,0,2.776-2.776V429a2.779,2.779,0,0,0-2.776-2.776Z" transform="translate(-2224.346 -424.943)"/>
    </g>
    <path id="Path_54" data-name="Path 54" d="M2296.441,487.645a.641.641,0,0,0-.674.605l-.207,3.847-7.862-8.754h0l-1.225-1.364,3.847.207a.641.641,0,1,0,.068-1.279l-5.391-.29h-.079l-.047.005-.045.008-.049.013-.027.007-.014.006-.047.021-.04.02c-.014.008-.028.017-.041.026s-.026.017-.037.026-.025.02-.036.031-.023.02-.033.031-.021.023-.031.035-.02.024-.03.037-.016.025-.024.038-.017.029-.025.044-.005.009-.007.013a.27.27,0,0,0-.01.026c-.006.016-.013.031-.018.047s-.009.029-.013.044-.007.031-.01.046,0,.032-.006.048,0,.02,0,.029l-.29,5.392a.641.641,0,0,0,1.28.069l.207-3.847,1.225,1.364h0l2.237,2.491,4.4,4.9h0l1.225,1.364-3.847-.207a.641.641,0,1,0-.069,1.279l5.392.29h.079l.047-.005.046-.008.049-.013.027-.007.015-.006.046-.02.04-.02.04-.025c.013-.009.026-.017.038-.027s.023-.02.035-.03l.035-.032c.01-.011.02-.023.03-.034s.021-.024.03-.038.016-.025.024-.037.018-.029.026-.044.005-.009.007-.013.006-.018.01-.026.013-.031.019-.047.009-.03.012-.044.008-.031.011-.046,0-.032.006-.048,0-.019,0-.029l.29-5.392A.64.64,0,0,0,2296.441,487.645Z" transform="translate(-54.59 -50.919)"/>
  </g>
</svg>
