<svg xmlns="http://www.w3.org/2000/svg" width="18.97" height="18.984" viewBox="0 0 18.97 18.984">
  <path id="Path_960" data-name="Path 960" d="M-472.73,49.713c-3.885,0-7.574-.346-8.983,3.271-.582,1.493-.5,3.433-.5,6.211,0,2.437-.078,4.728.5,6.209,1.406,3.618,5.125,3.272,8.981,3.272,3.72,0,7.556.387,8.982-3.272.583-1.508.5-3.419.5-6.209,0-3.7.2-6.1-1.592-7.891-1.819-1.819-4.278-1.591-7.89-1.591Zm-.849,1.708c8.1-.013,9.135-.914,8.566,11.6-.2,4.426-3.572,3.941-7.715,3.941-7.554,0-7.771-.216-7.771-7.774,0-7.644.6-7.765,6.92-7.771Zm5.91,1.574a1.137,1.137,0,0,0-1.137,1.137,1.137,1.137,0,0,0,1.137,1.137,1.137,1.137,0,0,0,1.138-1.137A1.137,1.137,0,0,0-467.669,53Zm-5.061,1.33a4.869,4.869,0,0,0-4.868,4.869,4.868,4.868,0,0,0,4.868,4.868,4.867,4.867,0,0,0,4.868-4.868,4.868,4.868,0,0,0-4.868-4.869Zm0,1.708c4.178,0,4.184,6.321,0,6.321S-476.913,56.034-472.73,56.034Z" transform="translate(482.215 -49.704)" fill="#333"/>
</svg>
