<svg xmlns="http://www.w3.org/2000/svg" width="24.75" height="24.75" viewBox="0 0 24.75 24.75">
  <path id="Path_944" data-name="Path 944" d="M741.7,2460.04l-23.153,7.566a.8.8,0,0,0-.153,1.449l8.75,5.088a.8.8,0,0,0,.877-.049l2.46-1.826-1.826,2.459a.8.8,0,0,0-.049.878l5.088,8.749a.8.8,0,0,0,1.449-.153l7.565-23.153a.8.8,0,0,0-1.007-1.007Zm-7.523,21.97-3.927-6.754,4.736-6.377a.8.8,0,0,0-1.117-1.117l-6.377,4.736-6.754-3.927,19.963-6.523Zm-7.8-4.514-5.3,5.3a.8.8,0,0,1-1.129-1.129l5.3-5.3a.8.8,0,1,1,1.129,1.128Zm-7,.2a.8.8,0,0,1,0-1.129l2.092-2.092a.8.8,0,0,1,1.129,1.129l-2.092,2.092A.8.8,0,0,1,719.379,2477.7Zm8.894,2.453a.8.8,0,0,1,0,1.129l-2.092,2.092a.8.8,0,0,1-1.129-1.129l2.092-2.092a.8.8,0,0,1,1.129,0Z" transform="translate(-718 -2460)"/>
</svg>
