<svg xmlns="http://www.w3.org/2000/svg" width="50.077" height="44.497" viewBox="0 0 50.077 44.497">
  <g id="Warehouse_1" data-name="Warehouse 1" transform="translate(-3 -14.006)">
    <path id="Path_1017" data-name="Path 1017" d="M52.214,56.61H50.487V29.046a1.225,1.225,0,0,0,0-.189,1,1,0,0,0-.069-.17l-.095-.142a.6.6,0,0,0-.13-.133.349.349,0,0,0-.078-.076l-21.585-14.2a.8.8,0,0,0-.863,0L6.082,28.336A.827.827,0,0,1,6,28.412a.6.6,0,0,0-.13.133.869.869,0,0,0-.095.151.664.664,0,0,0-.069.161,1.225,1.225,0,0,0,0,.189l-.121.1V56.61H3.863a.951.951,0,0,0,0,1.894h48.35a.951.951,0,0,0,0-1.894Zm-35.4,0h-5.18V47.141h5.18Zm27.629,0H23.721V37.672H44.443Zm4.317,0H46.17V36.725a.908.908,0,0,0-.863-.947H22.858a.908.908,0,0,0-.863.947V56.61H18.541V46.194a.908.908,0,0,0-.863-.947H10.771a.908.908,0,0,0-.863.947V56.61H7.317V29.69L28.038,16.055,48.76,29.69Z" transform="translate(0 0)" fill="#3a919e"/>
    <path id="Path_1018" data-name="Path 1018" d="M36.908,34.817h3.634a.908.908,0,0,0,0-1.817H36.908a.908.908,0,0,0,0,1.817Z" transform="translate(-4.679 -0.977)" fill="#3a919e"/>
    <path id="Path_1019" data-name="Path 1019" d="M31.908,44.817H44.626a.908.908,0,1,0,0-1.817H31.908a.908.908,0,1,0,0,1.817Z" transform="translate(-4.305 -1.491)" fill="#3a919e"/>
    <path id="Path_1020" data-name="Path 1020" d="M31.908,49.817H44.626a.908.908,0,1,0,0-1.817H31.908a.908.908,0,1,0,0,1.817Z" transform="translate(-4.305 -1.748)" fill="#3a919e"/>
    <path id="Path_1021" data-name="Path 1021" d="M31.908,54.817H44.626a.908.908,0,0,0,0-1.817H31.908a.908.908,0,0,0,0,1.817Z" transform="translate(-4.305 -1.764)" fill="#3a919e"/>
    <path id="Path_1022" data-name="Path 1022" d="M17.542,43H13.908a.908.908,0,1,0,0,1.817h3.634a.908.908,0,1,0,0-1.817Z" transform="translate(-1.418 -1.491)" fill="#3a919e"/>
  </g>
</svg>
