<svg xmlns="http://www.w3.org/2000/svg" width="31" height="31" viewBox="0 0 31 31">
  <g id="Group_18374" data-name="Group 18374" transform="translate(-348 -5145)">
    <rect id="Rectangle_12062" data-name="Rectangle 12062" width="31" height="31" transform="translate(348 5145)" fill="#161616" opacity="0.05"/>
    <path id="Icon_awesome-youtube" data-name="Icon awesome-youtube" d="M14.57,6.019A1.735,1.735,0,0,0,13.349,4.79,41,41,0,0,0,7.954,4.5a41,41,0,0,0-5.395.29A1.735,1.735,0,0,0,1.339,6.019,18.2,18.2,0,0,0,1.05,9.364a18.2,18.2,0,0,0,.289,3.345,1.709,1.709,0,0,0,1.221,1.209,41,41,0,0,0,5.395.29,41,41,0,0,0,5.395-.29,1.709,1.709,0,0,0,1.221-1.209,18.2,18.2,0,0,0,.289-3.345,18.2,18.2,0,0,0-.289-3.345Zm-8.028,5.4V7.311l3.609,2.053L6.542,11.417Z" transform="translate(355.418 5151.423)"/>
  </g>
</svg>
