<svg xmlns="http://www.w3.org/2000/svg" width="23.901" height="18.851" viewBox="0 0 23.901 18.851">
  <path id="Path_959" data-name="Path 959" d="M-261.7,52.045a10.016,10.016,0,0,1-2.817.751,4.8,4.8,0,0,0,2.157-2.635,9.94,9.94,0,0,1-3.115,1.156,4.968,4.968,0,0,0-3.58-1.5,4.832,4.832,0,0,0-4.9,4.758,4.6,4.6,0,0,0,.127,1.085,14.067,14.067,0,0,1-10.106-4.972,4.62,4.62,0,0,0-.664,2.392,4.719,4.719,0,0,0,2.181,3.96,4.99,4.99,0,0,1-2.222-.6v.06a4.8,4.8,0,0,0,3.933,4.667,5.084,5.084,0,0,1-1.292.167,4.921,4.921,0,0,1-.922-.086,4.891,4.891,0,0,0,4.581,3.305,10.027,10.027,0,0,1-6.09,2.037,10.369,10.369,0,0,1-1.171-.066,14.2,14.2,0,0,0,7.518,2.139,13.644,13.644,0,0,0,13.952-13.542l-.014-.616A9.788,9.788,0,0,0-261.7,52.045Z" transform="translate(285.603 -49.815)" fill="#333"/>
</svg>
