<svg xmlns="http://www.w3.org/2000/svg" width="44.343" height="45.057" viewBox="0 0 44.343 45.057">
  <g id="_3339046_business_tools_store_dukan_office_shop_icon" data-name="3339046_business tools_store_dukan_office_shop_icon" transform="translate(-0.475)">
    <circle id="Ellipse_74" data-name="Ellipse 74" cx="0.751" cy="0.751" r="0.751" transform="translate(8.773 3.727)" fill="#4b7ca7"/>
    <circle id="Ellipse_75" data-name="Ellipse 75" cx="0.751" cy="0.751" r="0.751" transform="translate(6.52 5.98)" fill="#4b7ca7"/>
    <circle id="Ellipse_76" data-name="Ellipse 76" cx="0.751" cy="0.751" r="0.751" transform="translate(24.543 5.98)" fill="#4b7ca7"/>
    <circle id="Ellipse_77" data-name="Ellipse 77" cx="0.751" cy="0.751" r="0.751" transform="translate(26.796 3.727)" fill="#4b7ca7"/>
    <circle id="Ellipse_78" data-name="Ellipse 78" cx="0.751" cy="0.751" r="0.751" transform="translate(29.048 5.98)" fill="#4b7ca7"/>
    <circle id="Ellipse_79" data-name="Ellipse 79" cx="0.751" cy="0.751" r="0.751" transform="translate(20.037 10.485)" fill="#4b7ca7"/>
    <circle id="Ellipse_80" data-name="Ellipse 80" cx="0.751" cy="0.751" r="0.751" transform="translate(15.531 10.485)" fill="#4b7ca7"/>
    <circle id="Ellipse_81" data-name="Ellipse 81" cx="0.751" cy="0.751" r="0.751" transform="translate(38.06 10.485)" fill="#4b7ca7"/>
    <circle id="Ellipse_82" data-name="Ellipse 82" cx="0.751" cy="0.751" r="0.751" transform="translate(17.784 12.738)" fill="#4b7ca7"/>
    <circle id="Ellipse_83" data-name="Ellipse 83" cx="0.751" cy="0.751" r="0.751" transform="translate(20.037 14.991)" fill="#4b7ca7"/>
    <circle id="Ellipse_84" data-name="Ellipse 84" cx="0.751" cy="0.751" r="0.751" transform="translate(13.279 12.738)" fill="#4b7ca7"/>
    <circle id="Ellipse_85" data-name="Ellipse 85" cx="0.751" cy="0.751" r="0.751" transform="translate(15.531 14.991)" fill="#4b7ca7"/>
    <circle id="Ellipse_86" data-name="Ellipse 86" cx="0.751" cy="0.751" r="0.751" transform="translate(40.313 12.738)" fill="#4b7ca7"/>
    <circle id="Ellipse_87" data-name="Ellipse 87" cx="0.751" cy="0.751" r="0.751" transform="translate(35.807 12.738)" fill="#4b7ca7"/>
    <circle id="Ellipse_88" data-name="Ellipse 88" cx="0.751" cy="0.751" r="0.751" transform="translate(38.06 14.991)" fill="#4b7ca7"/>
    <path id="Path_1009" data-name="Path 1009" d="M44.818,9.092a.823.823,0,0,0-.067-.325.942.942,0,0,0-.035-.218L41.621,1.8A3.1,3.1,0,0,0,38.814,0H7.268A3.1,3.1,0,0,0,4.461,1.8L1.41,8.425l-.041.108a.943.943,0,0,0-.029.314.956.956,0,0,0-.077.377v5.044a5.962,5.962,0,0,0,.751,2.9v5.52a2.817,2.817,0,0,0-.7,1.374,2.963,2.963,0,0,0,.077,1.373.968.968,0,0,1-.156.8,4.344,4.344,0,0,0-.4,4.034,2.731,2.731,0,0,0,.308.532,1,1,0,0,1,.165.829,3.028,3.028,0,0,0-.08.47,6.214,6.214,0,0,0,.188,1.85,3.324,3.324,0,0,0,.912,1.919,1.939,1.939,0,0,0,1.183.457v2.722h-2.2l-.381.016-.461.567.9,5.425H44.067V17.17a5.964,5.964,0,0,0,.751-2.9Zm-2.073,7.367c-.025.045-.053.088-.08.131a4.645,4.645,0,0,1-.326.472l-.006.008a4.527,4.527,0,0,1-.371.413c-.028.027-.058.052-.086.078-.044.041-.091.078-.137.117a.748.748,0,0,0-1.427.316.737.737,0,0,0,.168.454c-.041.017-.083.031-.125.046-.1.035-.194.069-.293.1-.069.02-.139.037-.209.054-.11.026-.221.047-.333.065-.059.01-.119.02-.179.027a4.159,4.159,0,0,1-.532.036,4.479,4.479,0,0,1-1.67-.324.737.737,0,0,0,.168-.454.748.748,0,0,0-1.43-.312A4.536,4.536,0,0,1,34.795,16.3.736.736,0,0,0,34.37,15a4.492,4.492,0,0,1-.065-.736V11.988a.751.751,0,0,0,0-1.5V9.762h9.011v.723a.751.751,0,0,0,0,1.5v2.281a4.477,4.477,0,0,1-.065.736.736.736,0,0,0-.424,1.3c-.019.036-.034.074-.053.11Zm-24.21.785a.751.751,0,0,0-.751.751.742.742,0,0,0,.638.728,4.575,4.575,0,0,1-.638.05,4.51,4.51,0,0,1-4.506-4.506V9.762H22.29v4.506a4.509,4.509,0,0,1-3.366,4.354.739.739,0,0,0,.363-.627A.75.75,0,0,0,18.535,17.244Zm-11.8,1.5c-.06-.008-.119-.018-.179-.027-.113-.018-.224-.039-.333-.065-.07-.017-.14-.034-.209-.054-.1-.029-.2-.063-.293-.1-.068-.025-.136-.046-.2-.074a4.587,4.587,0,0,1-.415-.2c-.068-.038-.134-.08-.2-.122-.081-.05-.161-.1-.24-.158-.059-.042-.117-.086-.174-.131-.1-.079-.2-.161-.29-.249-.028-.026-.058-.05-.085-.077a4.649,4.649,0,0,1-.372-.413l-.006-.008a4.645,4.645,0,0,1-.326-.472c-.026-.044-.055-.086-.08-.131l-.029-.048a4.467,4.467,0,0,1-.545-2.143V9.762h9.011v4.506a4.51,4.51,0,0,1-4.506,4.506A4.439,4.439,0,0,1,6.74,18.739ZM23.792,9.762H32.8v4.506a4.506,4.506,0,0,1-9.011,0V9.762ZM38.814,1.5a1.593,1.593,0,0,1,1.443.924L42.939,8.26H34.181l-.614-3.379L32.953,1.5Zm-15.022,0h1.363a.74.74,0,0,0-.612.723.751.751,0,1,0,1.5,0,.741.741,0,0,0-.612-.723h4.229a.74.74,0,0,0-.612.723.751.751,0,0,0,1.5,0,.741.741,0,0,0-.612-.723h1.488l.412,2.268a.742.742,0,0,0-.536.707.751.751,0,0,0,.751.751c.017,0,.032-.009.049-.01l.552,3.042H23.792Zm-9.135,0H22.29V8.26H13.428l.614-3.379ZM4.6,5.085a.732.732,0,0,0,.418.143.751.751,0,0,0,.751-.751.74.74,0,0,0-.561-.713l.617-1.34a1.578,1.578,0,0,1,1.133-.879.749.749,0,1,0,1.063.678A.741.741,0,0,0,7.41,1.5h4.229a.74.74,0,0,0-.612.723.751.751,0,0,0,1.5,0,.741.741,0,0,0-.612-.723h1.214l-.614,3.379-.237,1.3a.743.743,0,0,0-.5-.2.751.751,0,1,0,.276,1.446L11.9,8.26H3.139ZM2.891,33.64a4.953,4.953,0,0,1-.161-1.4,1.549,1.549,0,0,1,.041-.244,2.515,2.515,0,0,0-.418-2.088,1.294,1.294,0,0,1-.138-.239,2.831,2.831,0,0,1,.266-2.589,2.449,2.449,0,0,0,.351-2.065,1.486,1.486,0,0,1-.04-.674,1.311,1.311,0,0,1,.393-.719l.05-.04a1.029,1.029,0,0,1,.188-.125L4.1,22.9a.589.589,0,0,1,.19-.124c.017-.008.033-.014.05-.02a1.2,1.2,0,0,1,.417-.059c.077,0,.151.008.2.014a1.882,1.882,0,0,1,.729.26l.165.137a1.79,1.79,0,0,1,.2.189A1.267,1.267,0,0,1,6.2,23.5a1.236,1.236,0,0,1,.1.791,2.29,2.29,0,0,0,.463,1.92.928.928,0,0,1,.185.394,1.494,1.494,0,0,1,.028.3,3.111,3.111,0,0,1-.258,1.114h0a4.232,4.232,0,0,1-.492.929,2.422,2.422,0,0,0-.388,1.833,2.876,2.876,0,0,0,.2.658A2.063,2.063,0,0,1,6.1,32.8a2.357,2.357,0,0,1-.134.342,2.685,2.685,0,0,1-.412.614l-.023.023a3.387,3.387,0,0,1-.249.249,4.121,4.121,0,0,1-.835.574l-.01,0a2.574,2.574,0,0,1-.364.149.834.834,0,0,1-.767-.02A2.288,2.288,0,0,1,2.891,33.64Zm2.993,9.915H2.65l-.5-3H6.384Zm-.866-4.506V35.993c.042-.02.083-.041.125-.062a5.463,5.463,0,0,0,1.123-.768l0,0,.018-.018a4.768,4.768,0,0,0,.4-.4c.019-.022.035-.045.053-.067.095-.113.184-.228.265-.347.037-.053.07-.107.1-.161.061-.1.116-.2.168-.3.027-.053.056-.107.08-.161a3.865,3.865,0,0,0,.182-.475,3.324,3.324,0,0,0,.121-.593,3.645,3.645,0,0,0,.017-.614,3.5,3.5,0,0,0-.273-1.181,1.057,1.057,0,0,1,.03-1.012c.074-.1.139-.221.207-.334a5.99,5.99,0,0,0,.465-.924,3.968,3.968,0,0,0,.306-2.26,2.4,2.4,0,0,0-.5-1.055.805.805,0,0,1-.153-.65,2.707,2.707,0,0,0,.052-.6c0-.052,0-.1-.007-.154a2.727,2.727,0,0,0-.082-.519c-.005-.019,0-.039-.009-.058H24.541V39.05H5.018Zm24.03,4.506V23.279H39.562V43.555Zm13.517,0h-1.5V21.777H27.547V43.555H7.407l.5-3H26.045V21.777H6.6a3.361,3.361,0,0,0-1.432-.554A3.169,3.169,0,0,0,4.6,21.2c-.049,0-.1.007-.144.011a2.6,2.6,0,0,0-.407.066c-.038.01-.077.017-.115.027a2.212,2.212,0,0,0-.422.17V18.959a5.92,5.92,0,0,0,1.417.843l.006,0q.249.1.508.186l.088.027c.146.044.3.082.446.115l.135.029q.212.041.43.066c.05.006.1.014.148.019.191.018.383.029.577.029a6,6,0,0,0,.748-.052c.071-.009.14-.021.21-.032.185-.03.367-.068.547-.115.062-.016.125-.03.186-.048a5.939,5.939,0,0,0,.674-.24c.034-.014.065-.032.1-.047a6.042,6.042,0,0,0,.541-.279c.061-.035.119-.071.179-.109.159-.1.312-.207.461-.321.041-.032.085-.061.125-.094a5.955,5.955,0,0,0,.52-.472c.037-.038.071-.078.107-.117q.19-.205.361-.426c.043-.056.085-.111.125-.168a5.947,5.947,0,0,0,.328-.51c.014-.025.032-.047.047-.072.014.025.032.047.047.072.1.176.211.345.328.51.041.057.083.113.125.168q.171.222.361.426c.036.039.069.08.107.117a5.954,5.954,0,0,0,.52.472c.041.033.084.062.125.094.149.114.3.221.461.321.059.037.118.074.179.109a6.035,6.035,0,0,0,.541.279c.033.015.065.033.1.047a5.888,5.888,0,0,0,.674.24c.062.018.124.032.186.048.179.047.361.085.547.115.07.011.14.023.21.032a5.413,5.413,0,0,0,1.494,0c.071-.009.14-.021.21-.032.185-.03.367-.068.547-.115.062-.016.125-.03.186-.048a5.939,5.939,0,0,0,.674-.24c.034-.014.065-.032.1-.047a6.042,6.042,0,0,0,.541-.279c.061-.035.119-.071.179-.109.159-.1.312-.207.461-.321.041-.032.085-.061.125-.094a5.954,5.954,0,0,0,.52-.472c.037-.038.071-.078.107-.117q.19-.205.361-.426c.043-.056.085-.111.125-.168a5.947,5.947,0,0,0,.328-.51c.014-.025.032-.047.047-.072.014.025.032.047.047.072.1.176.211.345.328.51.041.057.083.113.125.168q.171.222.361.426c.036.039.069.08.107.117a5.954,5.954,0,0,0,.52.472c.041.033.084.062.125.094.149.114.3.221.461.321.059.037.118.074.179.109a6.036,6.036,0,0,0,.541.279c.033.015.065.033.1.047a5.888,5.888,0,0,0,.674.24c.062.018.124.032.186.048.179.047.361.085.547.115.07.011.14.023.21.032a5.413,5.413,0,0,0,1.494,0c.071-.009.14-.021.21-.032.185-.03.367-.068.547-.115.062-.016.125-.03.186-.048a5.939,5.939,0,0,0,.674-.24c.034-.014.065-.032.1-.047a6.042,6.042,0,0,0,.541-.279c.061-.035.119-.071.179-.109.159-.1.312-.207.461-.321.041-.032.085-.061.125-.094a5.955,5.955,0,0,0,.52-.472c.037-.038.071-.078.107-.117q.19-.205.361-.426c.043-.056.085-.111.125-.168a5.946,5.946,0,0,0,.328-.51c.014-.025.032-.047.047-.072.014.025.032.047.047.072.1.176.211.345.328.51.041.057.083.113.125.168q.171.222.361.426c.036.039.069.08.107.117a5.954,5.954,0,0,0,.52.472c.041.033.084.062.125.094.149.114.3.221.461.321.059.037.118.074.179.109a6.035,6.035,0,0,0,.541.279c.033.015.065.033.1.047a5.888,5.888,0,0,0,.674.24c.062.018.124.032.186.048.179.047.361.085.547.115.07.011.14.023.21.032a5.971,5.971,0,0,0,.746.052c.194,0,.386-.011.577-.029.05,0,.1-.013.148-.019.144-.017.288-.038.43-.066l.135-.029q.226-.05.446-.115l.088-.027c.173-.055.342-.116.508-.186l.006,0a5.92,5.92,0,0,0,1.417-.843Z" fill="#4b7ca7"/>
    <path id="Path_1010" data-name="Path 1010" d="M49.276,43a.75.75,0,0,0-.751.751V46a.751.751,0,0,0,1.5,0V43.751A.75.75,0,0,0,49.276,43Z" transform="translate(-11.967 -10.709)" fill="#4b7ca7"/>
    <path id="Path_1011" data-name="Path 1011" d="M18.276,37.506a.749.749,0,0,0,.531-.22l3-3a.751.751,0,0,0-1.062-1.062l-3,3a.751.751,0,0,0,.531,1.282Z" transform="translate(-4.246 -8.219)" fill="#4b7ca7"/>
    <path id="Path_1012" data-name="Path 1012" d="M18.276,43a.749.749,0,0,0,.531-.22l1.5-1.5a.751.751,0,0,0-1.062-1.062l-1.5,1.5A.751.751,0,0,0,18.276,43Z" transform="translate(-4.246 -9.962)" fill="#4b7ca7"/>
    <path id="Path_1013" data-name="Path 1013" d="M21.743,38.221a.785.785,0,0,0-.218.533.756.756,0,0,0,.751.751.753.753,0,1,0-.533-1.284Z" transform="translate(-5.243 -9.467)" fill="#4b7ca7"/>
    <path id="Path_1014" data-name="Path 1014" d="M23.745,36.535a.751.751,0,0,0,1.062,0l2.253-2.253A.751.751,0,0,0,26,33.22l-2.253,2.253A.751.751,0,0,0,23.745,36.535Z" transform="translate(-5.741 -8.219)" fill="#4b7ca7"/>
    <path id="Path_1015" data-name="Path 1015" d="M18.276,46.26a.749.749,0,0,0,.531-.22l6.758-6.758A.751.751,0,0,0,24.5,38.22l-6.758,6.758a.751.751,0,0,0,.531,1.282Z" transform="translate(-4.246 -9.464)" fill="#4b7ca7"/>
    <path id="Path_1016" data-name="Path 1016" d="M28.743,37.287a.762.762,0,1,0-.218-.533A.788.788,0,0,0,28.743,37.287Z" transform="translate(-6.986 -8.969)" fill="#4b7ca7"/>
  </g>
</svg>
