<svg xmlns="http://www.w3.org/2000/svg" width="12.534" height="12.533" viewBox="0 0 12.534 12.533">
  <path id="Icon_ionic-ios-call" data-name="Icon ionic-ios-call" d="M16.662,14.316a10.528,10.528,0,0,0-2.2-1.472c-.659-.317-.9-.31-1.367.026-.388.281-.64.542-1.087.444A6.482,6.482,0,0,1,9.826,11.7,6.435,6.435,0,0,1,8.211,9.517c-.095-.45.166-.7.444-1.087.336-.467.346-.708.026-1.367a10.32,10.32,0,0,0-1.472-2.2c-.48-.48-.587-.375-.852-.281A4.846,4.846,0,0,0,5.578,5a2.353,2.353,0,0,0-.936.989c-.186.4-.4,1.149.7,3.1a17.3,17.3,0,0,0,3.041,4.056h0l0,0,0,0h0a17.364,17.364,0,0,0,4.056,3.041c1.951,1.1,2.7.881,3.1.7a2.312,2.312,0,0,0,.989-.936,4.846,4.846,0,0,0,.414-.78C17.037,14.9,17.145,14.8,16.662,14.316Z" transform="translate(-4.49 -4.502)"/>
</svg>
