<svg id="_3643769_building_home_house_main_menu_icon" data-name="3643769_building_home_house_main_menu_icon" xmlns="http://www.w3.org/2000/svg" width="53.292" height="46.305" viewBox="0 0 53.292 46.305">
  <path id="Path_1002" data-name="Path 1002" d="M52.592,24.368a1.781,1.781,0,0,1-1.033-.338L27.659,6.968,3.759,24.029a1.781,1.781,0,0,1-2.066-2.885L26.626,3.335a1.781,1.781,0,0,1,2.066,0L53.625,21.144a1.781,1.781,0,0,1-1.033,3.224Z" transform="translate(-1.07 -2.996)" fill="#574fa9"/>
  <path id="Path_1003" data-name="Path 1003" d="M5.781,13.686A1.781,1.781,0,0,1,4,11.9V4.781A1.781,1.781,0,0,1,5.781,3H12.9a1.781,1.781,0,0,1,0,3.562H7.562V11.9A1.781,1.781,0,0,1,5.781,13.686Z" transform="translate(1.217 -3)" fill="#574fa9"/>
  <path id="Path_1004" data-name="Path 1004" d="M41.4,39.933H32.5a1.781,1.781,0,0,1-1.781-1.781V25.686H20.029V38.152a1.781,1.781,0,0,1-1.781,1.781h-8.9A5.343,5.343,0,0,1,4,34.59V16.781a1.781,1.781,0,0,1,3.562,0V34.59a1.781,1.781,0,0,0,1.781,1.781h7.124V23.9a1.781,1.781,0,0,1,1.781-1.781H32.5A1.781,1.781,0,0,1,34.276,23.9V36.371H41.4a1.781,1.781,0,0,0,1.781-1.781V16.781a1.781,1.781,0,0,1,3.562,0V34.59A5.343,5.343,0,0,1,41.4,39.933Z" transform="translate(1.217 6.371)" fill="#574fa9"/>
</svg>
