<svg xmlns="http://www.w3.org/2000/svg" width="44.983" height="52.663" viewBox="0 0 44.983 52.663">
  <path id="house-shape-PhotoshopSupply.com" d="M44.495,25.909V54.024H4.287V25.909H2L7.622,11.732h7.029l.469-.424v-6.8h4.686V7.066l3.983-3.6,9.137,8.27h7.029l7.029,14.177Zm-12.975-13L23.788,5.824l-7.732,7.089V24.564H31.52ZM42.8,25.97H5.982V52.618H19.258v.021h0v-.021h0V36.911c0-1.914,2.34-3.466,5.226-3.466S29.71,35,29.71,36.911V52.295h.013v.323H42.8ZM28.143,41.339v-3.7c0-1.125-1.155-2.071-2.721-2.345v6.043Zm-4.267,0v-6.09c-1.73.192-3.049,1.19-3.049,2.392v3.7ZM41.369,29.329v1.516H40.79v7.332H31.512V30.846H30.8V29.329ZM36.78,37.294H39.81V34.747H36.78Zm0-3.617H39.81V31.13H36.78Zm-4.3,3.617h3.031V34.747H32.476Zm0-3.617h3.031V31.13H32.476ZM40.79,48.811H31.512V40.8H40.79Zm-5.284-7.048H32.476V44.31h3.031Zm0,3.617H32.476v2.547h3.031Zm4.3-3.617H36.78V44.31H39.81Zm0,3.617H36.78v2.547H39.81Zm-22.191-7.2H8.341V30.846h-.7V29.329H18.205v1.516h-.586ZM12.335,31.13H9.3v2.547h3.031Zm0,3.617H9.3v2.547h3.031Zm4.3-3.617H13.608v2.547h3.031Zm0,3.617H13.608v2.547h3.031Zm.98,14.064H8.341V40.8h9.279Zm-5.284-7.048H9.3V44.31h3.031Zm0,3.617H9.3v2.547h3.031Zm4.3-3.617H13.608V44.31h3.031Zm0,3.617H13.608v2.547h3.031Zm12.5-30.943h-.609v7.2H19.251v-7.2h-.679V12.92H29.139Zm-5.893.153H20.215v2.547h3.031Zm0,3.617H20.215v2.547h3.031Zm4.3-3.617H24.518v2.547h3.031Zm0,3.617H24.518v2.547h3.031ZM14.339,1.361h5.935v2.1H14.339Z" transform="translate(-1.999 -1.361)" fill="#5da5b1"/>
</svg>
