<svg xmlns="http://www.w3.org/2000/svg" width="23.245" height="16.278" viewBox="0 0 23.245 16.278">
  <g id="Group_345" data-name="Group 345" transform="translate(0)">
    <path id="Path_957" data-name="Path 957" d="M-340.774,56.509a2.865,2.865,0,0,0-2.043-2.043c-1.809-.5-9.11-.5-9.11-.5s-7.268,0-9.111.469a2.968,2.968,0,0,0-2.043,2.077,31.271,31.271,0,0,0-.469,5.593,31.271,31.271,0,0,0,.469,5.593,2.866,2.866,0,0,0,2.043,2.043c1.842.5,9.111.5,9.111.5s7.268,0,9.11-.469a2.865,2.865,0,0,0,2.043-2.043,31.275,31.275,0,0,0,.469-5.593A28.577,28.577,0,0,0-340.774,56.509Z" transform="translate(363.55 -53.963)" fill="#333"/>
    <path id="Path_958" data-name="Path 958" d="M-348,68.705l6.062-3.483L-348,61.739Z" transform="translate(357.311 -57.083)" fill="#fff"/>
  </g>
</svg>
