<svg xmlns="http://www.w3.org/2000/svg" width="21.994" height="20.494" viewBox="0 0 21.994 20.494">
  <path id="Path_962" data-name="Path 962" d="M-419.852,68.937h4.391V54.3h-4.391Zm17.106-15.142a6.591,6.591,0,0,0-5.39,2.5V54.254h-4.407V68.937h4.407V61a3.485,3.485,0,0,1,3.463-3.315c1.926,0,2.4,1.637,2.4,3.274v7.979h4.391V60.629C-397.882,54.859-400.614,53.795-402.746,53.795Zm-14.931-.956a2.2,2.2,0,0,0,2.2-2.2,2.2,2.2,0,0,0-2.2-2.2,2.2,2.2,0,0,0-2.2,2.2A2.2,2.2,0,0,0-417.677,52.839Z" transform="translate(419.875 -48.443)" fill="#333"/>
</svg>
