<svg xmlns="http://www.w3.org/2000/svg" width="31" height="31" viewBox="0 0 31 31">
  <g id="Group_18372" data-name="Group 18372" transform="translate(-279 -5145)">
    <rect id="Rectangle_12060" data-name="Rectangle 12060" width="31" height="31" transform="translate(279 5145)" fill="#161616" opacity="0.05"/>
    <path id="Icon_awesome-twitter" data-name="Icon awesome-twitter" d="M11.745,6.031c.008.116.008.233.008.349A7.581,7.581,0,0,1,4.12,14.013,7.582,7.582,0,0,1,0,12.809a5.55,5.55,0,0,0,.648.033A5.373,5.373,0,0,0,3.979,11.7,2.688,2.688,0,0,1,1.47,9.835a3.383,3.383,0,0,0,.507.042,2.838,2.838,0,0,0,.706-.091A2.683,2.683,0,0,1,.532,7.152V7.119a2.7,2.7,0,0,0,1.213.341A2.687,2.687,0,0,1,.914,3.871,7.626,7.626,0,0,0,6.446,6.678a3.029,3.029,0,0,1-.066-.615,2.686,2.686,0,0,1,4.643-1.836,5.282,5.282,0,0,0,1.7-.648,2.676,2.676,0,0,1-1.18,1.479,5.379,5.379,0,0,0,1.545-.415,5.767,5.767,0,0,1-1.346,1.387Z" transform="translate(288 5151.619)"/>
  </g>
</svg>
