<svg xmlns="http://www.w3.org/2000/svg" width="15.549" height="10.765" viewBox="0 0 15.549 10.765">
  <g id="Icon_ionic-ios-mail" data-name="Icon ionic-ios-mail" transform="translate(-3.375 -7.875)">
    <path id="Path_1052" data-name="Path 1052" d="M18.8,10.337l-4.022,4.1a.072.072,0,0,0,0,.1l2.815,3a.485.485,0,0,1,0,.688.487.487,0,0,1-.688,0l-2.8-2.986a.077.077,0,0,0-.108,0l-.684.7a3.009,3.009,0,0,1-2.145.9,3.07,3.07,0,0,1-2.19-.931l-.658-.669a.077.077,0,0,0-.108,0L5.4,18.223a.487.487,0,0,1-.688,0,.485.485,0,0,1,0-.688l2.815-3a.08.08,0,0,0,0-.1L3.5,10.337a.074.074,0,0,0-.127.052v8.2a1.2,1.2,0,0,0,1.2,1.2H17.728a1.2,1.2,0,0,0,1.2-1.2v-8.2A.075.075,0,0,0,18.8,10.337Z" transform="translate(0 -1.142)"/>
    <path id="Path_1053" data-name="Path 1053" d="M11.548,14.719a2.032,2.032,0,0,0,1.461-.613l5.865-5.969a1.175,1.175,0,0,0-.74-.262H4.966a1.167,1.167,0,0,0-.74.262l5.865,5.969A2.032,2.032,0,0,0,11.548,14.719Z" transform="translate(-0.399)"/>
  </g>
</svg>
