<svg xmlns="http://www.w3.org/2000/svg" width="31" height="31" viewBox="0 0 31 31">
  <g id="Group_18375" data-name="Group 18375" transform="translate(-419 -5145)">
    <g id="Icon_feather-instagram" data-name="Icon feather-instagram" transform="translate(426.417 5152.417)">
      <path id="Path_1054" data-name="Path 1054" d="M5.542,3h5.083a2.542,2.542,0,0,1,2.542,2.542v5.083a2.542,2.542,0,0,1-2.542,2.542H5.542A2.542,2.542,0,0,1,3,10.625V5.542A2.542,2.542,0,0,1,5.542,3Z" fill="none" stroke="#000" stroke-linecap="round" stroke-linejoin="round" stroke-width="1"/>
      <path id="Path_1055" data-name="Path 1055" d="M16.109,13.67A2.033,2.033,0,1,1,14.4,11.957,2.033,2.033,0,0,1,16.109,13.67Z" transform="translate(-5.993 -5.907)" fill="none" stroke="#000" stroke-linecap="round" stroke-linejoin="round" stroke-width="1"/>
      <path id="Path_1056" data-name="Path 1056" d="M26.25,9.75h0" transform="translate(-15.371 -4.463)" fill="none" stroke="#000" stroke-linecap="round" stroke-linejoin="round" stroke-width="1"/>
    </g>
    <g id="Group_18374" data-name="Group 18374" transform="translate(36)">
      <path id="Path_46950" data-name="Path 46950" d="M0,0H31V31H0Z" transform="translate(383 5145)" fill="#161616" opacity="0.05"/>
    </g>
  </g>
</svg>
