<svg id="Group_346" data-name="Group 346" xmlns="http://www.w3.org/2000/svg" width="14.82" height="19.049" viewBox="0 0 14.82 19.049">
  <path id="Path_963" data-name="Path 963" d="M-209.076,61.966a5.188,5.188,0,0,1-2.557-1.217c-.5,2.622-1.111,5.137-2.92,6.45-.559-3.964.82-6.941,1.46-10.1-1.092-1.838.131-5.536,2.433-4.625,2.834,1.121-2.453,6.832,1.1,7.546,3.706.745,5.218-6.43,2.92-8.763-3.32-3.369-9.664-.077-8.884,4.747.19,1.179,1.409,1.537.486,3.164-2.125-.47-2.758-2.146-2.677-4.38a7.15,7.15,0,0,1,6.45-6.572c4-.448,7.758,1.469,8.276,5.233.583,4.248-1.807,8.849-6.086,8.519Z" transform="translate(217.724 -48.149)" fill="#333"/>
</svg>
