<svg xmlns="http://www.w3.org/2000/svg" width="165.322" height="111" viewBox="0 0 165.322 111">
  <g id="Over_The_Reserve_copy" data-name="Over The Reserve copy" transform="translate(-225.27 -163.36)">
    <g id="Group_18093" data-name="Group 18093" transform="translate(225.27 163.36)">
      <g id="Group_18091" data-name="Group 18091" transform="translate(0 71.2)">
        <g id="Group_18090" data-name="Group 18090">
          <path id="Path_1023" data-name="Path 1023" d="M249.5,337.372c-.066,6.1-3.806,12.2-12.1,12.2s-12.133-5.965-12.133-12.164,3.978-12.437,12.133-12.437C245.523,324.97,249.567,331.2,249.5,337.372Zm-19.847.1c.1,3.877,2.19,8.018,7.75,8.018s7.648-4.177,7.719-8.054c.066-3.978-2.159-8.424-7.719-8.424S229.552,333.495,229.654,337.473Z" transform="translate(-225.27 -324.97)"/>
          <path id="Path_1024" data-name="Path 1024" d="M295.984,349.729h-4.617L281.56,326.04h4.987l7.111,18.367L300.8,326.04h4.987Z" transform="translate(-256.761 -325.569)"/>
          <path id="Path_1025" data-name="Path 1025" d="M360.258,349.628H342.6V326.04h17.658v4.313H347.014v5.428h12.772v4.146H347.014v5.326h13.243Z" transform="translate(-290.909 -325.569)"/>
          <path id="Path_1026" data-name="Path 1026" d="M411.452,349.583H406.16l-6.873-7.886H395.01v7.886h-4.45V325.96c3.74,0,7.481.035,11.221.035,5.56.035,8.494,3.74,8.494,7.82,0,3.234-1.485,6.5-5.965,7.415l7.146,8.054v.3ZM395.01,330.141v7.547h6.771a3.785,3.785,0,1,0,0-7.551H395.01Z" transform="translate(-317.739 -325.524)"/>
          <path id="Path_1027" data-name="Path 1027" d="M461.911,330.084H454.43V326.04h19.411v4.044h-7.485v19.543h-4.45V330.084Z" transform="translate(-353.47 -325.569)"/>
          <path id="Path_1028" data-name="Path 1028" d="M520.721,349.708V340.17H509.13v9.538h-4.45V326.12h4.45v9.939h11.591V326.12h4.414v23.588Z" transform="translate(-381.582 -325.613)"/>
          <path id="Path_1029" data-name="Path 1029" d="M578.1,349.628H560.44V326.04H578.1v4.313H564.854v5.428h12.772v4.146H564.854v5.326H578.1Z" transform="translate(-412.776 -325.569)"/>
        </g>
      </g>
      <g id="Group_18092" data-name="Group 18092" transform="translate(48.7)">
        <path id="Path_1030" data-name="Path 1030" d="M369.769,163.36a33.958,33.958,0,0,0-33.214,41.03l4.106-2.674a29.441,29.441,0,1,1,58.551-4.4q0,1.328-.119,2.63a28.632,28.632,0,0,1-.648,4.058l-3.3-2.313-1.331-.934v5.771a1.814,1.814,0,0,0,.075-.2L397,208.514l3.78,2.652a33.509,33.509,0,0,0,2.5-8.283,33.963,33.963,0,0,0-33.514-39.523Z" transform="translate(-335.81 -163.36)"/>
        <path id="Path_1031" data-name="Path 1031" d="M396.055,245.075l-1.485-1.049-2.216-1.56v-17.3h-4.516v14.107l-3.7-2.608-3.692-2.608-4.115,2.63,7.807,5.511,3.7,2.608.194.137,4.018,2.837,1.22.863,1.8,1.273a28.552,28.552,0,0,1-2.5,2.762,29.46,29.46,0,0,1-47.171-8.468l.52-.335,2.613-1.7,7.838-5.1,10.759-6.873,4.11-2.63-4.1-2.89-20.116,13.089-3.265,2.119-3.934,2.56a33.775,33.775,0,0,0,3.586,7.468,33.912,33.912,0,0,0,52.9,5.406,33.559,33.559,0,0,0,2.45-2.793,32.842,32.842,0,0,0,2.542-3.74l-3.7-2.613Z" transform="translate(-338.059 -197.67)"/>
        <path id="Path_1032" data-name="Path 1032" d="M390.593,232.208l3.282-2.1,3.022,2.115V226.71l-2.9-2.04-7.388,4.723-4.115,2.63-19.861,12.7a25.575,25.575,0,0,0,2.639,3.67l21.213-13.556,4.11-2.63Z" transform="translate(-350.814 -197.659)"/>
        <rect id="Rectangle_12054" data-name="Rectangle 12054" width="4.793" height="4.793" transform="translate(29.148 44.938)"/>
        <rect id="Rectangle_12055" data-name="Rectangle 12055" width="4.793" height="4.793" transform="translate(35.862 44.938)"/>
        <rect id="Rectangle_12056" data-name="Rectangle 12056" width="4.793" height="4.793" transform="translate(35.862 51.647)"/>
        <rect id="Rectangle_12057" data-name="Rectangle 12057" width="4.793" height="4.793" transform="translate(29.148 51.647)"/>
      </g>
    </g>
    <g id="Group_18095" data-name="Group 18095" transform="translate(225.27 262.373)">
      <g id="Group_18094" data-name="Group 18094">
        <path id="Path_1033" data-name="Path 1033" d="M225.27,400.142V388.56h5.137a6.851,6.851,0,0,1,2.353.313,2.578,2.578,0,0,1,1.286,1.1,3.28,3.28,0,0,1,.48,1.745,2.908,2.908,0,0,1-.8,2.079,4.044,4.044,0,0,1-2.463,1.075,3.975,3.975,0,0,1,.925.577,7.89,7.89,0,0,1,1.273,1.542l2.013,3.15h-1.93l-1.533-2.41c-.449-.7-.815-1.229-1.106-1.595a3.532,3.532,0,0,0-.78-.775,2.335,2.335,0,0,0-.7-.308,4.7,4.7,0,0,0-.855-.057H226.8v5.141H225.27Zm1.533-6.467h3.3a4.938,4.938,0,0,0,1.643-.216,1.717,1.717,0,0,0,.9-.7,1.912,1.912,0,0,0,.308-1.04,1.733,1.733,0,0,0-.595-1.353,2.794,2.794,0,0,0-1.886-.529H226.8Z" transform="translate(-225.27 -388.357)"/>
        <path id="Path_1034" data-name="Path 1034" d="M262.83,400.142V388.56h8.375v1.366h-6.842v3.547h6.406v1.357h-6.406v3.943h7.111v1.366H262.83Z" transform="translate(-246.282 -388.357)"/>
        <path id="Path_1035" data-name="Path 1035" d="M297.09,396.178l1.445-.128a3.272,3.272,0,0,0,.476,1.427,2.627,2.627,0,0,0,1.163.9,4.416,4.416,0,0,0,1.775.344,4.275,4.275,0,0,0,1.546-.26,2.157,2.157,0,0,0,1-.714,1.65,1.65,0,0,0,.326-.991,1.51,1.51,0,0,0-.317-.952,2.339,2.339,0,0,0-1.044-.683c-.313-.119-1-.308-2.062-.564a10.5,10.5,0,0,1-2.234-.723,3.13,3.13,0,0,1-1.238-1.079,2.615,2.615,0,0,1-.405-1.441,2.946,2.946,0,0,1,.5-1.639,3.086,3.086,0,0,1,1.454-1.159,5.492,5.492,0,0,1,2.124-.4,5.8,5.8,0,0,1,2.273.414,3.269,3.269,0,0,1,1.511,1.22,3.51,3.51,0,0,1,.568,1.824l-1.471.11a2.386,2.386,0,0,0-.8-1.661,3.113,3.113,0,0,0-2.018-.56,3.244,3.244,0,0,0-2.027.511,1.529,1.529,0,0,0-.634,1.229,1.32,1.32,0,0,0,.449,1.027,6.12,6.12,0,0,0,2.313.824,15.137,15.137,0,0,1,2.564.74,3.536,3.536,0,0,1,1.494,1.181,2.874,2.874,0,0,1,.48,1.648,3.138,3.138,0,0,1-.529,1.74,3.483,3.483,0,0,1-1.52,1.273,5.284,5.284,0,0,1-2.234.454,6.691,6.691,0,0,1-2.635-.458,3.669,3.669,0,0,1-1.665-1.379A3.963,3.963,0,0,1,297.09,396.178Z" transform="translate(-265.449 -388.111)"/>
        <path id="Path_1036" data-name="Path 1036" d="M333.85,400.142V388.56h8.375v1.366h-6.842v3.547h6.406v1.357h-6.406v3.943h7.111v1.366H333.85Z" transform="translate(-286.013 -388.357)"/>
        <path id="Path_1037" data-name="Path 1037" d="M369.35,400.142V388.56h5.133a6.851,6.851,0,0,1,2.353.313,2.578,2.578,0,0,1,1.286,1.1,3.28,3.28,0,0,1,.48,1.745,2.908,2.908,0,0,1-.8,2.079,4.044,4.044,0,0,1-2.463,1.075,3.975,3.975,0,0,1,.925.577,7.889,7.889,0,0,1,1.273,1.542l2.013,3.15h-1.93l-1.533-2.41c-.449-.7-.815-1.229-1.106-1.595a3.532,3.532,0,0,0-.78-.775,2.334,2.334,0,0,0-.7-.308,4.7,4.7,0,0,0-.855-.057h-1.78v5.141h-1.52Zm1.533-6.467h3.3a4.938,4.938,0,0,0,1.643-.216,1.716,1.716,0,0,0,.9-.7,1.865,1.865,0,0,0,.308-1.04,1.733,1.733,0,0,0-.595-1.353,2.794,2.794,0,0,0-1.886-.529h-3.665Z" transform="translate(-305.873 -388.357)"/>
        <path id="Path_1038" data-name="Path 1038" d="M407.979,400.142,403.49,388.56h1.661l3.009,8.415c.242.674.445,1.308.608,1.894.181-.63.388-1.264.626-1.894l3.128-8.415h1.564l-4.533,11.582Z" transform="translate(-324.973 -388.357)"/>
        <path id="Path_1039" data-name="Path 1039" d="M441.75,400.142V388.56h8.375v1.366h-6.842v3.547h6.406v1.357h-6.406v3.943h7.111v1.366H441.75Z" transform="translate(-346.376 -388.357)"/>
        <path id="Path_1040" data-name="Path 1040" d="M477.7,412.791V411.17h1.621v1.621Z" transform="translate(-366.488 -401.006)"/>
        <path id="Path_1041" data-name="Path 1041" d="M506.116,395.839l1.533.388a5.15,5.15,0,0,1-1.736,2.881,4.783,4.783,0,0,1-3.062.991,5.508,5.508,0,0,1-3.044-.762,4.739,4.739,0,0,1-1.784-2.207,7.862,7.862,0,0,1-.612-3.106,6.782,6.782,0,0,1,.692-3.154,4.734,4.734,0,0,1,1.969-2.049,5.741,5.741,0,0,1,2.806-.7,4.736,4.736,0,0,1,2.921.886,4.614,4.614,0,0,1,1.652,2.489l-1.511.357a3.58,3.58,0,0,0-1.167-1.842,3.123,3.123,0,0,0-1.925-.577,3.748,3.748,0,0,0-2.234.639,3.378,3.378,0,0,0-1.26,1.718,6.9,6.9,0,0,0-.361,2.225,7.09,7.09,0,0,0,.432,2.582,3.2,3.2,0,0,0,1.339,1.648,3.77,3.77,0,0,0,1.969.546,3.283,3.283,0,0,0,2.181-.745A3.835,3.835,0,0,0,506.116,395.839Z" transform="translate(-377.515 -388.111)"/>
        <path id="Path_1042" data-name="Path 1042" d="M534.9,394.246a6.3,6.3,0,0,1,1.546-4.516,5.26,5.26,0,0,1,4-1.63,5.537,5.537,0,0,1,2.89.767A5.037,5.037,0,0,1,545.3,391a6.954,6.954,0,0,1,.674,3.11,6.837,6.837,0,0,1-.709,3.15,4.875,4.875,0,0,1-2.013,2.106,5.759,5.759,0,0,1-2.811.714,5.485,5.485,0,0,1-2.921-.789,5.056,5.056,0,0,1-1.952-2.159A6.5,6.5,0,0,1,534.9,394.246Zm1.577.022a4.635,4.635,0,0,0,1.128,3.3,3.928,3.928,0,0,0,5.67-.013,4.921,4.921,0,0,0,1.119-3.454,5.939,5.939,0,0,0-.476-2.467,3.658,3.658,0,0,0-1.4-1.634,3.789,3.789,0,0,0-2.066-.582,3.931,3.931,0,0,0-2.8,1.119A4.985,4.985,0,0,0,536.477,394.268Z" transform="translate(-398.488 -388.1)"/>
        <path id="Path_1043" data-name="Path 1043" d="M575.43,400.142V388.56h2.309l2.74,8.2c.251.762.436,1.335.555,1.714.132-.423.335-1.04.617-1.855l2.771-8.058h2.062v11.582h-1.476V390.45l-3.366,9.692h-1.383l-3.348-9.86v9.86Z" transform="translate(-421.162 -388.357)"/>
      </g>
    </g>
  </g>
</svg>
