<svg xmlns="http://www.w3.org/2000/svg" width="63.998" height="45.177" viewBox="0 0 63.998 45.177">
  <g id="Quotemarks-right" transform="translate(-0.001 -9.412)">
    <path id="Path_11" data-name="Path 11" d="M14.193,9.412a14.193,14.193,0,0,0-.823,28.362c.129,1.392.032,5.18-3.6,10.449A1,1,0,0,0,9.889,49.5c1.485,1.485,2.4,2.421,3.046,3.075.841.855,1.225,1.246,1.786,1.756a1,1,0,0,0,1.328.015A38.326,38.326,0,0,0,28.384,23.532C27.788,15.35,21.82,9.412,14.193,9.412ZM15.4,52.222c-.272-.268-.583-.585-1.041-1.051-.557-.567-1.32-1.345-2.479-2.507,4.405-6.788,3.573-11.623,3.209-12.316a1.036,1.036,0,0,0-.9-.551,12.193,12.193,0,0,1,0-24.386c6.549,0,11.678,5.158,12.2,12.265C27.532,39.35,18.217,49.527,15.4,52.222Z"/>
    <path id="Path_12" data-name="Path 12" d="M63.9,23.532h0C63.3,15.35,57.334,9.412,49.709,9.412a14.193,14.193,0,0,0-.822,28.362c.129,1.391.031,5.177-3.6,10.449A1,1,0,0,0,45.4,49.5c1.479,1.479,2.4,2.413,3.038,3.066.845.861,1.23,1.254,1.795,1.766a1,1,0,0,0,1.328.013A38.329,38.329,0,0,0,63.9,23.532ZM50.918,52.222c-.274-.271-.588-.589-1.05-1.06-.557-.567-1.317-1.342-2.471-2.5,4.405-6.789,3.574-11.623,3.211-12.316a1.039,1.039,0,0,0-.9-.551,12.193,12.193,0,1,1,0-24.386c6.548,0,11.678,5.158,12.2,12.266h0C63.048,39.348,53.732,49.527,50.918,52.222Z"/>
  </g>
</svg>
