<svg xmlns="http://www.w3.org/2000/svg" width="26" height="25" viewBox="0 0 26 25">
  <g id="Group_332" data-name="Group 332" transform="translate(0.424 -0.106)">
    <ellipse id="Ellipse_66" data-name="Ellipse 66" cx="13" cy="12.5" rx="13" ry="12.5" transform="translate(-0.424 0.106)" opacity="0.1"/>
    <path id="Icon_awesome-user-alt" data-name="Icon awesome-user-alt" d="M4.085,4.6a2.3,2.3,0,1,0-2.3-2.3A2.3,2.3,0,0,0,4.085,4.6Zm2.043.511H5.249a2.778,2.778,0,0,1-2.327,0H2.043A2.042,2.042,0,0,0,0,7.149V7.4a.766.766,0,0,0,.766.766H7.4A.766.766,0,0,0,8.17,7.4V7.149A2.042,2.042,0,0,0,6.128,5.107Z" transform="translate(8.596 8.599)" opacity="0.2"/>
  </g>
</svg>
